<?xml version="1.0" encoding="UTF-8" standalone="no"?>
<!DOCTYPE svg PUBLIC "-//W3C//DTD SVG 1.1//EN"
 "http://www.w3.org/Graphics/SVG/1.1/DTD/svg11.dtd">
<!-- Generated by graphviz version 2.47.2 (20210527.1257)
 -->
<!-- Title: snakemake_dag Pages: 1 -->
<svg width="1322pt" height="1700pt"
 viewBox="0.00 0.00 1321.50 1700.00" xmlns="http://www.w3.org/2000/svg" xmlns:xlink="http://www.w3.org/1999/xlink">
<g id="graph0" class="graph" transform="scale(1 1) rotate(0) translate(4 1696)">
<title>snakemake_dag</title>
<polygon fill="white" stroke="transparent" points="-4,4 -4,-1696 1317.5,-1696 1317.5,4 -4,4"/>
<!-- 0 -->
<g id="node1" class="node">
<title>0</title>
<path fill="none" stroke="#68d856" stroke-width="2" d="M613.5,-36C613.5,-36 583.5,-36 583.5,-36 577.5,-36 571.5,-30 571.5,-24 571.5,-24 571.5,-12 571.5,-12 571.5,-6 577.5,0 583.5,0 583.5,0 613.5,0 613.5,0 619.5,0 625.5,-6 625.5,-12 625.5,-12 625.5,-24 625.5,-24 625.5,-30 619.5,-36 613.5,-36"/>
<text text-anchor="middle" x="598.5" y="-15.5" font-family="sans" font-size="10.00">all</text>
</g>
<!-- 1 -->
<g id="node2" class="node">
<title>1</title>
<path fill="none" stroke="#56d8a9" stroke-width="2" d="M577.5,-108C577.5,-108 501.5,-108 501.5,-108 495.5,-108 489.5,-102 489.5,-96 489.5,-96 489.5,-84 489.5,-84 489.5,-78 495.5,-72 501.5,-72 501.5,-72 577.5,-72 577.5,-72 583.5,-72 589.5,-78 589.5,-84 589.5,-84 589.5,-96 589.5,-96 589.5,-102 583.5,-108 577.5,-108"/>
<text text-anchor="middle" x="539.5" y="-87.5" font-family="sans" font-size="10.00">norm_final_vcf_1</text>
</g>
<!-- 1&#45;&gt;0 -->
<g id="edge2" class="edge">
<title>1&#45;&gt;0</title>
<path fill="none" stroke="grey" stroke-width="2" d="M554.08,-71.7C561.16,-63.3 569.78,-53.07 577.55,-43.86"/>
<polygon fill="grey" stroke="grey" stroke-width="2" points="580.31,-46.01 584.08,-36.1 574.96,-41.49 580.31,-46.01"/>
</g>
<!-- 2 -->
<g id="node3" class="node">
<title>2</title>
<path fill="none" stroke="#566bd8" stroke-width="2" d="M545.5,-180C545.5,-180 491.5,-180 491.5,-180 485.5,-180 479.5,-174 479.5,-168 479.5,-168 479.5,-156 479.5,-156 479.5,-150 485.5,-144 491.5,-144 491.5,-144 545.5,-144 545.5,-144 551.5,-144 557.5,-150 557.5,-156 557.5,-156 557.5,-168 557.5,-168 557.5,-174 551.5,-180 545.5,-180"/>
<text text-anchor="middle" x="518.5" y="-159.5" font-family="sans" font-size="10.00">bcf_to_vcf_1</text>
</g>
<!-- 2&#45;&gt;1 -->
<g id="edge3" class="edge">
<title>2&#45;&gt;1</title>
<path fill="none" stroke="grey" stroke-width="2" d="M523.69,-143.7C526.03,-135.9 528.85,-126.51 531.45,-117.83"/>
<polygon fill="grey" stroke="grey" stroke-width="2" points="534.85,-118.69 534.37,-108.1 528.14,-116.68 534.85,-118.69"/>
</g>
<!-- 3 -->
<g id="node4" class="node">
<title>3</title>
<path fill="none" stroke="#c6d856" stroke-width="2" d="M536.5,-252C536.5,-252 414.5,-252 414.5,-252 408.5,-252 402.5,-246 402.5,-240 402.5,-240 402.5,-228 402.5,-228 402.5,-222 408.5,-216 414.5,-216 414.5,-216 536.5,-216 536.5,-216 542.5,-216 548.5,-222 548.5,-228 548.5,-228 548.5,-240 548.5,-240 548.5,-246 542.5,-252 536.5,-252"/>
<text text-anchor="middle" x="475.5" y="-231.5" font-family="sans" font-size="10.00">bcftools_concat_final_calls</text>
</g>
<!-- 3&#45;&gt;2 -->
<g id="edge4" class="edge">
<title>3&#45;&gt;2</title>
<path fill="none" stroke="grey" stroke-width="2" d="M486.13,-215.7C491.13,-207.56 497.19,-197.69 502.71,-188.7"/>
<polygon fill="grey" stroke="grey" stroke-width="2" points="505.74,-190.46 507.99,-180.1 499.78,-186.79 505.74,-190.46"/>
</g>
<!-- 4 -->
<g id="node5" class="node">
<title>4</title>
<path fill="none" stroke="#567bd8" stroke-width="2" d="M601,-396C601,-396 556,-396 556,-396 550,-396 544,-390 544,-384 544,-384 544,-372 544,-372 544,-366 550,-360 556,-360 556,-360 601,-360 601,-360 607,-360 613,-366 613,-372 613,-372 613,-384 613,-384 613,-390 607,-396 601,-396"/>
<text text-anchor="middle" x="578.5" y="-375.5" font-family="sans" font-size="10.00">control_fdr</text>
</g>
<!-- 4&#45;&gt;3 -->
<g id="edge5" class="edge">
<title>4&#45;&gt;3</title>
<path fill="none" stroke="grey" stroke-width="2" d="M543.87,-360.99C528.22,-352.13 510.75,-339.71 499.5,-324 486.51,-305.86 480.55,-281.09 477.81,-262.28"/>
<polygon fill="grey" stroke="grey" stroke-width="2" points="481.28,-261.75 476.58,-252.26 474.33,-262.61 481.28,-261.75"/>
</g>
<!-- 47 -->
<g id="node48" class="node">
<title>47</title>
<path fill="none" stroke="#61d856" stroke-width="2" d="M637,-324C637,-324 520,-324 520,-324 514,-324 508,-318 508,-312 508,-312 508,-300 508,-300 508,-294 514,-288 520,-288 520,-288 637,-288 637,-288 643,-288 649,-294 649,-300 649,-300 649,-312 649,-312 649,-318 643,-324 637,-324"/>
<text text-anchor="middle" x="578.5" y="-303.5" font-family="sans" font-size="10.00">bcftools_index_final_calls</text>
</g>
<!-- 4&#45;&gt;47 -->
<g id="edge84" class="edge">
<title>4&#45;&gt;47</title>
<path fill="none" stroke="grey" stroke-width="2" d="M578.5,-359.7C578.5,-351.98 578.5,-342.71 578.5,-334.11"/>
<polygon fill="grey" stroke="grey" stroke-width="2" points="582,-334.1 578.5,-324.1 575,-334.1 582,-334.1"/>
</g>
<!-- 50 -->
<g id="node51" class="node">
<title>50</title>
<path fill="none" stroke="#d89556" stroke-width="2" d="M780.5,-252C780.5,-252 578.5,-252 578.5,-252 572.5,-252 566.5,-246 566.5,-240 566.5,-240 566.5,-228 566.5,-228 566.5,-222 572.5,-216 578.5,-216 578.5,-216 780.5,-216 780.5,-216 786.5,-216 792.5,-222 792.5,-228 792.5,-228 792.5,-240 792.5,-240 792.5,-246 786.5,-252 780.5,-252"/>
<text text-anchor="middle" x="679.5" y="-231.5" font-family="sans" font-size="10.00">targets_filtered_bcftools_concat_final_calls</text>
</g>
<!-- 4&#45;&gt;50 -->
<g id="edge87" class="edge">
<title>4&#45;&gt;50</title>
<path fill="none" stroke="grey" stroke-width="2" d="M613.38,-361.46C629.38,-352.65 647.26,-340.13 658.5,-324 671.16,-305.84 676.26,-281.07 678.28,-262.27"/>
<polygon fill="grey" stroke="grey" stroke-width="2" points="681.77,-262.51 679.13,-252.25 674.79,-261.92 681.77,-262.51"/>
</g>
<!-- 5 -->
<g id="node6" class="node">
<title>5</title>
<path fill="none" stroke="#56d8d0" stroke-width="2" d="M600.5,-468C600.5,-468 556.5,-468 556.5,-468 550.5,-468 544.5,-462 544.5,-456 544.5,-456 544.5,-444 544.5,-444 544.5,-438 550.5,-432 556.5,-432 556.5,-432 600.5,-432 600.5,-432 606.5,-432 612.5,-438 612.5,-444 612.5,-444 612.5,-456 612.5,-456 612.5,-462 606.5,-468 600.5,-468"/>
<text text-anchor="middle" x="578.5" y="-447.5" font-family="sans" font-size="10.00">filter_odds</text>
</g>
<!-- 5&#45;&gt;4 -->
<g id="edge7" class="edge">
<title>5&#45;&gt;4</title>
<path fill="none" stroke="grey" stroke-width="2" d="M578.5,-431.7C578.5,-423.98 578.5,-414.71 578.5,-406.11"/>
<polygon fill="grey" stroke="grey" stroke-width="2" points="582,-406.1 578.5,-396.1 575,-406.1 582,-406.1"/>
</g>
<!-- 6 -->
<g id="node7" class="node">
<title>6</title>
<path fill="none" stroke="#d85656" stroke-width="2" d="M617,-540C617,-540 540,-540 540,-540 534,-540 528,-534 528,-528 528,-528 528,-516 528,-516 528,-510 534,-504 540,-504 540,-504 617,-504 617,-504 623,-504 629,-510 629,-516 629,-516 629,-528 629,-528 629,-534 623,-540 617,-540"/>
<text text-anchor="middle" x="578.5" y="-519.5" font-family="sans" font-size="10.00">varlociraptor_call</text>
</g>
<!-- 6&#45;&gt;5 -->
<g id="edge8" class="edge">
<title>6&#45;&gt;5</title>
<path fill="none" stroke="grey" stroke-width="2" d="M578.5,-503.7C578.5,-495.98 578.5,-486.71 578.5,-478.11"/>
<polygon fill="grey" stroke="grey" stroke-width="2" points="582,-478.1 578.5,-468.1 575,-478.1 582,-478.1"/>
</g>
<!-- 7 -->
<g id="node8" class="node">
<title>7</title>
<path fill="none" stroke="#56d892" stroke-width="2" d="M635,-612C635,-612 522,-612 522,-612 516,-612 510,-606 510,-600 510,-600 510,-588 510,-588 510,-582 516,-576 522,-576 522,-576 635,-576 635,-576 641,-576 647,-582 647,-588 647,-588 647,-600 647,-600 647,-606 641,-612 635,-612"/>
<text text-anchor="middle" x="578.5" y="-591.5" font-family="sans" font-size="10.00">varlociraptor_preprocess</text>
</g>
<!-- 7&#45;&gt;6 -->
<g id="edge9" class="edge">
<title>7&#45;&gt;6</title>
<path fill="none" stroke="grey" stroke-width="2" d="M578.5,-575.7C578.5,-567.98 578.5,-558.71 578.5,-550.11"/>
<polygon fill="grey" stroke="grey" stroke-width="2" points="582,-550.1 578.5,-540.1 575,-550.1 582,-550.1"/>
</g>
<!-- 8 -->
<g id="node9" class="node">
<title>8</title>
<path fill="none" stroke="#80d856" stroke-width="2" d="M711,-1692C711,-1692 658,-1692 658,-1692 652,-1692 646,-1686 646,-1680 646,-1680 646,-1668 646,-1668 646,-1662 652,-1656 658,-1656 658,-1656 711,-1656 711,-1656 717,-1656 723,-1662 723,-1668 723,-1668 723,-1680 723,-1680 723,-1686 717,-1692 711,-1692"/>
<text text-anchor="middle" x="684.5" y="-1671.5" font-family="sans" font-size="10.00">get_genome</text>
</g>
<!-- 8&#45;&gt;7 -->
<g id="edge12" class="edge">
<title>8&#45;&gt;7</title>
<path fill="none" stroke="grey" stroke-width="2" d="M723.37,-1672.58C860.51,-1670.08 1313.5,-1652.61 1313.5,-1531 1313.5,-1531 1313.5,-1531 1313.5,-737 1313.5,-670.76 847.34,-619.96 657.51,-602.03"/>
<polygon fill="grey" stroke="grey" stroke-width="2" points="657.6,-598.52 647.32,-601.07 656.95,-605.49 657.6,-598.52"/>
</g>
<!-- 9 -->
<g id="node10" class="node">
<title>9</title>
<path fill="none" stroke="#d86e56" stroke-width="2" d="M779.5,-1476C779.5,-1476 717.5,-1476 717.5,-1476 711.5,-1476 705.5,-1470 705.5,-1464 705.5,-1464 705.5,-1452 705.5,-1452 705.5,-1446 711.5,-1440 717.5,-1440 717.5,-1440 779.5,-1440 779.5,-1440 785.5,-1440 791.5,-1446 791.5,-1452 791.5,-1452 791.5,-1464 791.5,-1464 791.5,-1470 785.5,-1476 779.5,-1476"/>
<text text-anchor="middle" x="748.5" y="-1455.5" font-family="sans" font-size="10.00">genome_faidx</text>
</g>
<!-- 8&#45;&gt;9 -->
<g id="edge15" class="edge">
<title>8&#45;&gt;9</title>
<path fill="none" stroke="grey" stroke-width="2" d="M689.63,-1655.85C700.75,-1618.68 727.14,-1530.44 740.48,-1485.82"/>
<polygon fill="grey" stroke="grey" stroke-width="2" points="743.83,-1486.82 743.35,-1476.23 737.13,-1484.81 743.83,-1486.82"/>
</g>
<!-- 14 -->
<g id="node15" class="node">
<title>14</title>
<path fill="none" stroke="#56a9d8" stroke-width="2" d="M1094.5,-1044C1094.5,-1044 1042.5,-1044 1042.5,-1044 1036.5,-1044 1030.5,-1038 1030.5,-1032 1030.5,-1032 1030.5,-1020 1030.5,-1020 1030.5,-1014 1036.5,-1008 1042.5,-1008 1042.5,-1008 1094.5,-1008 1094.5,-1008 1100.5,-1008 1106.5,-1014 1106.5,-1020 1106.5,-1020 1106.5,-1032 1106.5,-1032 1106.5,-1038 1100.5,-1044 1094.5,-1044"/>
<text text-anchor="middle" x="1068.5" y="-1023.5" font-family="sans" font-size="10.00">gatk_calling</text>
</g>
<!-- 8&#45;&gt;14 -->
<g id="edge30" class="edge">
<title>8&#45;&gt;14</title>
<path fill="none" stroke="grey" stroke-width="2" d="M723.19,-1672.78C785.48,-1671.1 910.72,-1662.22 1006.5,-1620 1065,-1594.22 1119.5,-1594.93 1119.5,-1531 1119.5,-1531 1119.5,-1531 1119.5,-1169 1119.5,-1126.59 1099.1,-1081.02 1084.1,-1053.26"/>
<polygon fill="grey" stroke="grey" stroke-width="2" points="1086.99,-1051.25 1079.07,-1044.21 1080.87,-1054.65 1086.99,-1051.25"/>
</g>
<!-- 15 -->
<g id="node16" class="node">
<title>15</title>
<path fill="none" stroke="#56d863" stroke-width="2" d="M530.5,-1116C530.5,-1116 484.5,-1116 484.5,-1116 478.5,-1116 472.5,-1110 472.5,-1104 472.5,-1104 472.5,-1092 472.5,-1092 472.5,-1086 478.5,-1080 484.5,-1080 484.5,-1080 530.5,-1080 530.5,-1080 536.5,-1080 542.5,-1086 542.5,-1092 542.5,-1092 542.5,-1104 542.5,-1104 542.5,-1110 536.5,-1116 530.5,-1116"/>
<text text-anchor="middle" x="507.5" y="-1095.5" font-family="sans" font-size="10.00">apply_bqsr</text>
</g>
<!-- 8&#45;&gt;15 -->
<g id="edge34" class="edge">
<title>8&#45;&gt;15</title>
<path fill="none" stroke="grey" stroke-width="2" d="M645.75,-1668.67C576,-1658.5 436.5,-1626.26 436.5,-1531 436.5,-1531 436.5,-1531 436.5,-1457 436.5,-1351.36 372.58,-1328.28 389.5,-1224 394.9,-1190.7 392.04,-1178.02 413.5,-1152 426.47,-1136.27 445.41,-1124.33 462.89,-1115.81"/>
<polygon fill="grey" stroke="grey" stroke-width="2" points="464.79,-1118.79 472.4,-1111.42 461.86,-1112.43 464.79,-1118.79"/>
</g>
<!-- 19 -->
<g id="node20" class="node">
<title>19</title>
<path fill="none" stroke="#56d87b" stroke-width="2" d="M574,-1620C574,-1620 529,-1620 529,-1620 523,-1620 517,-1614 517,-1608 517,-1608 517,-1596 517,-1596 517,-1590 523,-1584 529,-1584 529,-1584 574,-1584 574,-1584 580,-1584 586,-1590 586,-1596 586,-1596 586,-1608 586,-1608 586,-1614 580,-1620 574,-1620"/>
<text text-anchor="middle" x="551.5" y="-1599.5" font-family="sans" font-size="10.00">bwa_index</text>
</g>
<!-- 8&#45;&gt;19 -->
<g id="edge41" class="edge">
<title>8&#45;&gt;19</title>
<path fill="none" stroke="grey" stroke-width="2" d="M651.96,-1655.88C634.25,-1646.55 612.15,-1634.92 593.18,-1624.94"/>
<polygon fill="grey" stroke="grey" stroke-width="2" points="594.64,-1621.75 584.16,-1620.19 591.38,-1627.94 594.64,-1621.75"/>
</g>
<!-- 21 -->
<g id="node22" class="node">
<title>21</title>
<path fill="none" stroke="#9fd856" stroke-width="2" d="M965.5,-1260C965.5,-1260 909.5,-1260 909.5,-1260 903.5,-1260 897.5,-1254 897.5,-1248 897.5,-1248 897.5,-1236 897.5,-1236 897.5,-1230 903.5,-1224 909.5,-1224 909.5,-1224 965.5,-1224 965.5,-1224 971.5,-1224 977.5,-1230 977.5,-1236 977.5,-1236 977.5,-1248 977.5,-1248 977.5,-1254 971.5,-1260 965.5,-1260"/>
<text text-anchor="middle" x="937.5" y="-1239.5" font-family="sans" font-size="10.00">genome_dict</text>
</g>
<!-- 8&#45;&gt;21 -->
<g id="edge43" class="edge">
<title>8&#45;&gt;21</title>
<path fill="none" stroke="grey" stroke-width="2" d="M723,-1667.91C790.36,-1656.62 922.5,-1622.78 922.5,-1531 922.5,-1531 922.5,-1531 922.5,-1385 922.5,-1344.99 928.46,-1299 932.87,-1270.46"/>
<polygon fill="grey" stroke="grey" stroke-width="2" points="936.35,-1270.85 934.46,-1260.43 929.44,-1269.75 936.35,-1270.85"/>
</g>
<!-- 22 -->
<g id="node23" class="node">
<title>22</title>
<path fill="none" stroke="#569ad8" stroke-width="2" d="M770,-1188C770,-1188 649,-1188 649,-1188 643,-1188 637,-1182 637,-1176 637,-1176 637,-1164 637,-1164 637,-1158 643,-1152 649,-1152 649,-1152 770,-1152 770,-1152 776,-1152 782,-1158 782,-1164 782,-1164 782,-1176 782,-1176 782,-1182 776,-1188 770,-1188"/>
<text text-anchor="middle" x="709.5" y="-1167.5" font-family="sans" font-size="10.00">recalibrate_base_qualities</text>
</g>
<!-- 8&#45;&gt;22 -->
<g id="edge47" class="edge">
<title>8&#45;&gt;22</title>
<path fill="none" stroke="grey" stroke-width="2" d="M677.82,-1655.81C668.18,-1629.4 651.5,-1577.06 651.5,-1531 651.5,-1531 651.5,-1531 651.5,-1313 651.5,-1272.55 653.92,-1260.89 670.5,-1224 674.86,-1214.31 681.19,-1204.66 687.5,-1196.31"/>
<polygon fill="grey" stroke="grey" stroke-width="2" points="690.27,-1198.45 693.72,-1188.44 684.77,-1194.11 690.27,-1198.45"/>
</g>
<!-- 30 -->
<g id="node31" class="node">
<title>30</title>
<path fill="none" stroke="#a7d856" stroke-width="2" d="M148,-1620C148,-1620 75,-1620 75,-1620 69,-1620 63,-1614 63,-1608 63,-1608 63,-1596 63,-1596 63,-1590 69,-1584 75,-1584 75,-1584 148,-1584 148,-1584 154,-1584 160,-1590 160,-1596 160,-1596 160,-1608 160,-1608 160,-1614 154,-1620 148,-1620"/>
<text text-anchor="middle" x="111.5" y="-1599.5" font-family="sans" font-size="10.00">novoalign_index</text>
</g>
<!-- 8&#45;&gt;30 -->
<g id="edge59" class="edge">
<title>8&#45;&gt;30</title>
<path fill="none" stroke="grey" stroke-width="2" d="M645.81,-1671.1C560.23,-1666.42 348.67,-1652.33 174.5,-1620 173.04,-1619.73 171.56,-1619.44 170.07,-1619.14"/>
<polygon fill="grey" stroke="grey" stroke-width="2" points="170.68,-1615.69 160.16,-1616.96 169.18,-1622.52 170.68,-1615.69"/>
</g>
<!-- 33 -->
<g id="node34" class="node">
<title>33</title>
<path fill="none" stroke="#88d856" stroke-width="2" d="M438.5,-1044C438.5,-1044 362.5,-1044 362.5,-1044 356.5,-1044 350.5,-1038 350.5,-1032 350.5,-1032 350.5,-1020 350.5,-1020 350.5,-1014 356.5,-1008 362.5,-1008 362.5,-1008 438.5,-1008 438.5,-1008 444.5,-1008 450.5,-1014 450.5,-1020 450.5,-1020 450.5,-1032 450.5,-1032 450.5,-1038 444.5,-1044 438.5,-1044"/>
<text text-anchor="middle" x="400.5" y="-1023.5" font-family="sans" font-size="10.00">bcftools_mpileup</text>
</g>
<!-- 8&#45;&gt;33 -->
<g id="edge64" class="edge">
<title>8&#45;&gt;33</title>
<path fill="none" stroke="grey" stroke-width="2" d="M645.69,-1670.85C597.72,-1666.73 514.92,-1654.75 453.5,-1620 337.51,-1554.37 295.34,-1527.6 245.5,-1404 191.81,-1270.84 320.58,-1111.95 376.32,-1051.75"/>
<polygon fill="grey" stroke="grey" stroke-width="2" points="379.07,-1053.94 383.37,-1044.25 373.97,-1049.14 379.07,-1053.94"/>
</g>
<!-- 35 -->
<g id="node36" class="node">
<title>35</title>
<path fill="none" stroke="#56d8b9" stroke-width="2" d="M320.5,-1044C320.5,-1044 226.5,-1044 226.5,-1044 220.5,-1044 214.5,-1038 214.5,-1032 214.5,-1032 214.5,-1020 214.5,-1020 214.5,-1014 220.5,-1008 226.5,-1008 226.5,-1008 320.5,-1008 320.5,-1008 326.5,-1008 332.5,-1014 332.5,-1020 332.5,-1020 332.5,-1032 332.5,-1032 332.5,-1038 326.5,-1044 320.5,-1044"/>
<text text-anchor="middle" x="273.5" y="-1023.5" font-family="sans" font-size="10.00">deep_variant_calling</text>
</g>
<!-- 8&#45;&gt;35 -->
<g id="edge68" class="edge">
<title>8&#45;&gt;35</title>
<path fill="none" stroke="grey" stroke-width="2" d="M645.82,-1671.27C537.99,-1666.09 239.82,-1649.25 207.5,-1620 177.51,-1592.86 188.5,-1571.45 188.5,-1531 188.5,-1531 188.5,-1531 188.5,-1241 188.5,-1168.65 230.99,-1091.63 255.88,-1052.72"/>
<polygon fill="grey" stroke="grey" stroke-width="2" points="258.97,-1054.4 261.5,-1044.11 253.1,-1050.57 258.97,-1054.4"/>
</g>
<!-- 37 -->
<g id="node38" class="node">
<title>37</title>
<path fill="none" stroke="#568ad8" stroke-width="2" d="M997,-1044C997,-1044 956,-1044 956,-1044 950,-1044 944,-1038 944,-1032 944,-1032 944,-1020 944,-1020 944,-1014 950,-1008 956,-1008 956,-1008 997,-1008 997,-1008 1003,-1008 1009,-1014 1009,-1020 1009,-1020 1009,-1032 1009,-1032 1009,-1038 1003,-1044 997,-1044"/>
<text text-anchor="middle" x="976.5" y="-1023.5" font-family="sans" font-size="10.00">freebayes</text>
</g>
<!-- 8&#45;&gt;37 -->
<g id="edge71" class="edge">
<title>8&#45;&gt;37</title>
<path fill="none" stroke="grey" stroke-width="2" d="M723.29,-1667.6C823.18,-1652.62 1081.5,-1606.58 1081.5,-1531 1081.5,-1531 1081.5,-1531 1081.5,-1169 1081.5,-1119.46 1039.68,-1075.9 1008.82,-1050.49"/>
<polygon fill="grey" stroke="grey" stroke-width="2" points="1010.85,-1047.63 1000.85,-1044.13 1006.48,-1053.1 1010.85,-1047.63"/>
</g>
<!-- 39 -->
<g id="node40" class="node">
<title>39</title>
<path fill="none" stroke="#d8bc56" stroke-width="2" d="M1203.5,-1044C1203.5,-1044 1173.5,-1044 1173.5,-1044 1167.5,-1044 1161.5,-1038 1161.5,-1032 1161.5,-1032 1161.5,-1020 1161.5,-1020 1161.5,-1014 1167.5,-1008 1173.5,-1008 1173.5,-1008 1203.5,-1008 1203.5,-1008 1209.5,-1008 1215.5,-1014 1215.5,-1020 1215.5,-1020 1215.5,-1032 1215.5,-1032 1215.5,-1038 1209.5,-1044 1203.5,-1044"/>
<text text-anchor="middle" x="1188.5" y="-1023.5" font-family="sans" font-size="10.00">delly</text>
</g>
<!-- 8&#45;&gt;39 -->
<g id="edge75" class="edge">
<title>8&#45;&gt;39</title>
<path fill="none" stroke="grey" stroke-width="2" d="M723.33,-1670.6C842.58,-1662.17 1195.5,-1628.95 1195.5,-1531 1195.5,-1531 1195.5,-1531 1195.5,-1169 1195.5,-1128.95 1192.69,-1082.62 1190.63,-1054.06"/>
<polygon fill="grey" stroke="grey" stroke-width="2" points="1194.11,-1053.75 1189.88,-1044.04 1187.13,-1054.27 1194.11,-1053.75"/>
</g>
<!-- 9&#45;&gt;7 -->
<g id="edge10" class="edge">
<title>9&#45;&gt;7</title>
<path fill="none" stroke="grey" stroke-width="2" d="M705.23,-1453.42C652.99,-1447.9 563.35,-1434.55 492.5,-1404 441.21,-1381.88 428.54,-1371.94 389.5,-1332 275.68,-1215.55 186.5,-1189.84 186.5,-1027 186.5,-1027 186.5,-1027 186.5,-737 186.5,-671.04 385.17,-627.03 499.64,-607.14"/>
<polygon fill="grey" stroke="grey" stroke-width="2" points="500.5,-610.55 509.77,-605.41 499.32,-603.65 500.5,-610.55"/>
</g>
<!-- 9&#45;&gt;15 -->
<g id="edge32" class="edge">
<title>9&#45;&gt;15</title>
<path fill="none" stroke="grey" stroke-width="2" d="M735.64,-1439.97C727.93,-1429.65 718,-1416.18 709.5,-1404 638.31,-1302.08 557.89,-1177.7 523.97,-1124.8"/>
<polygon fill="grey" stroke="grey" stroke-width="2" points="526.72,-1122.59 518.38,-1116.06 520.82,-1126.37 526.72,-1122.59"/>
</g>
<!-- 9&#45;&gt;22 -->
<g id="edge44" class="edge">
<title>9&#45;&gt;22</title>
<path fill="none" stroke="grey" stroke-width="2" d="M791.53,-1443.69C810.57,-1435.46 831.18,-1422.77 842.5,-1404 867.29,-1362.89 849.74,-1343.72 844.5,-1296 840.92,-1263.42 849.25,-1249.38 828.5,-1224 817.25,-1210.24 801.7,-1199.93 785.54,-1192.26"/>
<polygon fill="grey" stroke="grey" stroke-width="2" points="786.55,-1188.88 775.99,-1188.04 783.72,-1195.28 786.55,-1188.88"/>
</g>
<!-- 24 -->
<g id="node25" class="node">
<title>24</title>
<path fill="none" stroke="#56d0d8" stroke-width="2" d="M821,-1404C821,-1404 730,-1404 730,-1404 724,-1404 718,-1398 718,-1392 718,-1392 718,-1380 718,-1380 718,-1374 724,-1368 730,-1368 730,-1368 821,-1368 821,-1368 827,-1368 833,-1374 833,-1380 833,-1380 833,-1392 833,-1392 833,-1398 827,-1404 821,-1404"/>
<text text-anchor="middle" x="775.5" y="-1383.5" font-family="sans" font-size="10.00">get_known_variants</text>
</g>
<!-- 9&#45;&gt;24 -->
<g id="edge52" class="edge">
<title>9&#45;&gt;24</title>
<path fill="none" stroke="grey" stroke-width="2" d="M755.17,-1439.7C758.21,-1431.81 761.88,-1422.3 765.26,-1413.55"/>
<polygon fill="grey" stroke="grey" stroke-width="2" points="768.57,-1414.69 768.9,-1404.1 762.04,-1412.17 768.57,-1414.69"/>
</g>
<!-- 9&#45;&gt;33 -->
<g id="edge65" class="edge">
<title>9&#45;&gt;33</title>
<path fill="none" stroke="grey" stroke-width="2" d="M705.33,-1442.73C621.05,-1414.56 440.92,-1352.75 419.5,-1332 343.47,-1258.35 374.41,-1114.23 391.76,-1054.23"/>
<polygon fill="grey" stroke="grey" stroke-width="2" points="395.2,-1054.95 394.72,-1044.37 388.5,-1052.94 395.2,-1054.95"/>
</g>
<!-- 9&#45;&gt;37 -->
<g id="edge72" class="edge">
<title>9&#45;&gt;37</title>
<path fill="none" stroke="grey" stroke-width="2" d="M791.52,-1452.79C864.68,-1442.99 1005.5,-1411.6 1005.5,-1315 1005.5,-1315 1005.5,-1315 1005.5,-1169 1005.5,-1128.21 993.87,-1082.15 985.34,-1053.84"/>
<polygon fill="grey" stroke="grey" stroke-width="2" points="988.68,-1052.77 982.37,-1044.26 981.99,-1054.84 988.68,-1052.77"/>
</g>
<!-- 9&#45;&gt;39 -->
<g id="edge76" class="edge">
<title>9&#45;&gt;39</title>
<path fill="none" stroke="grey" stroke-width="2" d="M791.71,-1455.47C873.65,-1450.02 1043.5,-1425.41 1043.5,-1315 1043.5,-1315 1043.5,-1315 1043.5,-1241 1043.5,-1159.84 1115.86,-1086.55 1158.35,-1050.52"/>
<polygon fill="grey" stroke="grey" stroke-width="2" points="1160.71,-1053.11 1166.16,-1044.02 1156.23,-1047.72 1160.71,-1053.11"/>
</g>
<!-- 10 -->
<g id="node11" class="node">
<title>10</title>
<path fill="none" stroke="#d8c356" stroke-width="2" d="M825.5,-684C825.5,-684 673.5,-684 673.5,-684 667.5,-684 661.5,-678 661.5,-672 661.5,-672 661.5,-660 661.5,-660 661.5,-654 667.5,-648 673.5,-648 673.5,-648 825.5,-648 825.5,-648 831.5,-648 837.5,-654 837.5,-660 837.5,-660 837.5,-672 837.5,-672 837.5,-678 831.5,-684 825.5,-684"/>
<text text-anchor="middle" x="749.5" y="-663.5" font-family="sans" font-size="10.00">norm_merged_candidate_callset</text>
</g>
<!-- 10&#45;&gt;7 -->
<g id="edge11" class="edge">
<title>10&#45;&gt;7</title>
<path fill="none" stroke="grey" stroke-width="2" d="M707.67,-647.88C684.08,-638.22 654.44,-626.09 629.5,-615.88"/>
<polygon fill="grey" stroke="grey" stroke-width="2" points="630.78,-612.62 620.2,-612.07 628.12,-619.1 630.78,-612.62"/>
</g>
<!-- 11 -->
<g id="node12" class="node">
<title>11</title>
<path fill="none" stroke="#ced856" stroke-width="2" d="M929.5,-756C929.5,-756 791.5,-756 791.5,-756 785.5,-756 779.5,-750 779.5,-744 779.5,-744 779.5,-732 779.5,-732 779.5,-726 785.5,-720 791.5,-720 791.5,-720 929.5,-720 929.5,-720 935.5,-720 941.5,-726 941.5,-732 941.5,-732 941.5,-744 941.5,-744 941.5,-750 935.5,-756 929.5,-756"/>
<text text-anchor="middle" x="860.5" y="-735.5" font-family="sans" font-size="10.00">concat_all_candidate_callsets</text>
</g>
<!-- 11&#45;&gt;10 -->
<g id="edge16" class="edge">
<title>11&#45;&gt;10</title>
<path fill="none" stroke="grey" stroke-width="2" d="M833.35,-719.88C818.97,-710.81 801.12,-699.55 785.59,-689.76"/>
<polygon fill="grey" stroke="grey" stroke-width="2" points="787.08,-686.56 776.76,-684.19 783.35,-692.48 787.08,-686.56"/>
</g>
<!-- 12 -->
<g id="node13" class="node">
<title>12</title>
<path fill="none" stroke="#78d856" stroke-width="2" d="M1122,-900C1122,-900 1015,-900 1015,-900 1009,-900 1003,-894 1003,-888 1003,-888 1003,-876 1003,-876 1003,-870 1009,-864 1015,-864 1015,-864 1122,-864 1122,-864 1128,-864 1134,-870 1134,-876 1134,-876 1134,-888 1134,-888 1134,-894 1128,-900 1122,-900"/>
<text text-anchor="middle" x="1068.5" y="-879.5" font-family="sans" font-size="10.00">gatk_bcftools_reheader</text>
</g>
<!-- 12&#45;&gt;11 -->
<g id="edge24" class="edge">
<title>12&#45;&gt;11</title>
<path fill="none" stroke="grey" stroke-width="2" d="M1043.41,-863.87C1006.09,-838.39 935.87,-790.45 894.13,-761.96"/>
<polygon fill="grey" stroke="grey" stroke-width="2" points="895.91,-758.94 885.68,-756.19 891.96,-764.72 895.91,-758.94"/>
</g>
<!-- 41 -->
<g id="node42" class="node">
<title>41</title>
<path fill="none" stroke="#d8b456" stroke-width="2" d="M1143.5,-828C1143.5,-828 1015.5,-828 1015.5,-828 1009.5,-828 1003.5,-822 1003.5,-816 1003.5,-816 1003.5,-804 1003.5,-804 1003.5,-798 1009.5,-792 1015.5,-792 1015.5,-792 1143.5,-792 1143.5,-792 1149.5,-792 1155.5,-798 1155.5,-804 1155.5,-804 1155.5,-816 1155.5,-816 1155.5,-822 1149.5,-828 1143.5,-828"/>
<text text-anchor="middle" x="1079.5" y="-807.5" font-family="sans" font-size="10.00">index_gatk_haplotypecaller</text>
</g>
<!-- 12&#45;&gt;41 -->
<g id="edge78" class="edge">
<title>12&#45;&gt;41</title>
<path fill="none" stroke="grey" stroke-width="2" d="M1071.22,-863.7C1072.43,-855.98 1073.89,-846.71 1075.24,-838.11"/>
<polygon fill="grey" stroke="grey" stroke-width="2" points="1078.72,-838.53 1076.81,-828.1 1071.8,-837.44 1078.72,-838.53"/>
</g>
<!-- 13 -->
<g id="node14" class="node">
<title>13</title>
<path fill="none" stroke="#d88556" stroke-width="2" d="M1103.5,-972C1103.5,-972 1033.5,-972 1033.5,-972 1027.5,-972 1021.5,-966 1021.5,-960 1021.5,-960 1021.5,-948 1021.5,-948 1021.5,-942 1027.5,-936 1033.5,-936 1033.5,-936 1103.5,-936 1103.5,-936 1109.5,-936 1115.5,-942 1115.5,-948 1115.5,-948 1115.5,-960 1115.5,-960 1115.5,-966 1109.5,-972 1103.5,-972"/>
<text text-anchor="middle" x="1068.5" y="-951.5" font-family="sans" font-size="10.00">gatk_vcf_to_bcf</text>
</g>
<!-- 13&#45;&gt;12 -->
<g id="edge27" class="edge">
<title>13&#45;&gt;12</title>
<path fill="none" stroke="grey" stroke-width="2" d="M1068.5,-935.7C1068.5,-927.98 1068.5,-918.71 1068.5,-910.11"/>
<polygon fill="grey" stroke="grey" stroke-width="2" points="1072,-910.1 1068.5,-900.1 1065,-910.1 1072,-910.1"/>
</g>
<!-- 14&#45;&gt;13 -->
<g id="edge28" class="edge">
<title>14&#45;&gt;13</title>
<path fill="none" stroke="grey" stroke-width="2" d="M1068.5,-1007.7C1068.5,-999.98 1068.5,-990.71 1068.5,-982.11"/>
<polygon fill="grey" stroke="grey" stroke-width="2" points="1072,-982.1 1068.5,-972.1 1065,-982.1 1072,-982.1"/>
</g>
<!-- 15&#45;&gt;14 -->
<g id="edge29" class="edge">
<title>15&#45;&gt;14</title>
<path fill="none" stroke="grey" stroke-width="2" d="M542.63,-1096.06C626.09,-1093.26 842.5,-1082.53 1018.5,-1044 1019.1,-1043.87 1019.71,-1043.73 1020.31,-1043.59"/>
<polygon fill="grey" stroke="grey" stroke-width="2" points="1021.48,-1046.9 1030.26,-1040.97 1019.69,-1040.13 1021.48,-1046.9"/>
</g>
<!-- 15&#45;&gt;33 -->
<g id="edge63" class="edge">
<title>15&#45;&gt;33</title>
<path fill="none" stroke="grey" stroke-width="2" d="M481.32,-1079.88C467.46,-1070.81 450.26,-1059.55 435.29,-1049.76"/>
<polygon fill="grey" stroke="grey" stroke-width="2" points="437.06,-1046.74 426.78,-1044.19 433.23,-1052.59 437.06,-1046.74"/>
</g>
<!-- 15&#45;&gt;35 -->
<g id="edge67" class="edge">
<title>15&#45;&gt;35</title>
<path fill="none" stroke="grey" stroke-width="2" d="M472.47,-1086.52C437.69,-1076.12 383.5,-1059.91 340.45,-1047.03"/>
<polygon fill="grey" stroke="grey" stroke-width="2" points="341.19,-1043.6 330.61,-1044.08 339.19,-1050.3 341.19,-1043.6"/>
</g>
<!-- 15&#45;&gt;37 -->
<g id="edge70" class="edge">
<title>15&#45;&gt;37</title>
<path fill="none" stroke="grey" stroke-width="2" d="M542.75,-1091.74C627.47,-1079.09 842.25,-1047.04 933.95,-1033.35"/>
<polygon fill="grey" stroke="grey" stroke-width="2" points="934.62,-1036.79 943.99,-1031.85 933.58,-1029.87 934.62,-1036.79"/>
</g>
<!-- 15&#45;&gt;39 -->
<g id="edge74" class="edge">
<title>15&#45;&gt;39</title>
<path fill="none" stroke="grey" stroke-width="2" d="M542.67,-1095.68C636.33,-1091.79 899.42,-1078.4 1115.5,-1044 1127.33,-1042.12 1140.09,-1039.39 1151.58,-1036.67"/>
<polygon fill="grey" stroke="grey" stroke-width="2" points="1152.41,-1040.07 1161.3,-1034.3 1150.75,-1033.27 1152.41,-1040.07"/>
</g>
<!-- 45 -->
<g id="node46" class="node">
<title>45</title>
<path fill="none" stroke="#5663d8" stroke-width="2" d="M570,-756C570,-756 437,-756 437,-756 431,-756 425,-750 425,-744 425,-744 425,-732 425,-732 425,-726 431,-720 437,-720 437,-720 570,-720 570,-720 576,-720 582,-726 582,-732 582,-732 582,-744 582,-744 582,-750 576,-756 570,-756"/>
<text text-anchor="middle" x="503.5" y="-735.5" font-family="sans" font-size="10.00">samtools_merge_final_bams</text>
</g>
<!-- 15&#45;&gt;45 -->
<g id="edge82" class="edge">
<title>15&#45;&gt;45</title>
<path fill="none" stroke="grey" stroke-width="2" d="M500.67,-1079.81C486.21,-1041.3 454.75,-945.09 466.5,-864 471.55,-829.16 484.12,-790.5 493.22,-765.53"/>
<polygon fill="grey" stroke="grey" stroke-width="2" points="496.54,-766.63 496.75,-756.04 489.98,-764.19 496.54,-766.63"/>
</g>
<!-- 16 -->
<g id="node17" class="node">
<title>16</title>
<path fill="none" stroke="#d6d856" stroke-width="2" d="M514.5,-1332C514.5,-1332 440.5,-1332 440.5,-1332 434.5,-1332 428.5,-1326 428.5,-1320 428.5,-1320 428.5,-1308 428.5,-1308 428.5,-1302 434.5,-1296 440.5,-1296 440.5,-1296 514.5,-1296 514.5,-1296 520.5,-1296 526.5,-1302 526.5,-1308 526.5,-1308 526.5,-1320 526.5,-1320 526.5,-1326 520.5,-1332 514.5,-1332"/>
<text text-anchor="middle" x="477.5" y="-1311.5" font-family="sans" font-size="10.00">mark_duplicates</text>
</g>
<!-- 16&#45;&gt;15 -->
<g id="edge35" class="edge">
<title>16&#45;&gt;15</title>
<path fill="none" stroke="grey" stroke-width="2" d="M436.82,-1295.88C421.98,-1287.41 406.82,-1275.59 398.5,-1260 390.97,-1245.88 392.89,-1238.98 398.5,-1224 414.07,-1182.46 450.37,-1145.65 476.82,-1122.92"/>
<polygon fill="grey" stroke="grey" stroke-width="2" points="479.27,-1125.43 484.68,-1116.32 474.77,-1120.07 479.27,-1125.43"/>
</g>
<!-- 20 -->
<g id="node21" class="node">
<title>20</title>
<path fill="none" stroke="#d87d56" stroke-width="2" d="M535.5,-1260C535.5,-1260 419.5,-1260 419.5,-1260 413.5,-1260 407.5,-1254 407.5,-1248 407.5,-1248 407.5,-1236 407.5,-1236 407.5,-1230 413.5,-1224 419.5,-1224 419.5,-1224 535.5,-1224 535.5,-1224 541.5,-1224 547.5,-1230 547.5,-1236 547.5,-1236 547.5,-1248 547.5,-1248 547.5,-1254 541.5,-1260 535.5,-1260"/>
<text text-anchor="middle" x="477.5" y="-1239.5" font-family="sans" font-size="10.00">mark_duplicates_indexes</text>
</g>
<!-- 16&#45;&gt;20 -->
<g id="edge42" class="edge">
<title>16&#45;&gt;20</title>
<path fill="none" stroke="grey" stroke-width="2" d="M477.5,-1295.7C477.5,-1287.98 477.5,-1278.71 477.5,-1270.11"/>
<polygon fill="grey" stroke="grey" stroke-width="2" points="481,-1270.1 477.5,-1260.1 474,-1270.1 481,-1270.1"/>
</g>
<!-- 16&#45;&gt;22 -->
<g id="edge49" class="edge">
<title>16&#45;&gt;22</title>
<path fill="none" stroke="grey" stroke-width="2" d="M505.48,-1295.87C547.38,-1270.23 626.42,-1221.85 672.86,-1193.43"/>
<polygon fill="grey" stroke="grey" stroke-width="2" points="674.71,-1196.39 681.42,-1188.19 671.06,-1190.42 674.71,-1196.39"/>
</g>
<!-- 17 -->
<g id="node18" class="node">
<title>17</title>
<path fill="none" stroke="#5673d8" stroke-width="2" d="M548.5,-1548C548.5,-1548 476.5,-1548 476.5,-1548 470.5,-1548 464.5,-1542 464.5,-1536 464.5,-1536 464.5,-1524 464.5,-1524 464.5,-1518 470.5,-1512 476.5,-1512 476.5,-1512 548.5,-1512 548.5,-1512 554.5,-1512 560.5,-1518 560.5,-1524 560.5,-1524 560.5,-1536 560.5,-1536 560.5,-1542 554.5,-1548 548.5,-1548"/>
<text text-anchor="middle" x="512.5" y="-1527.5" font-family="sans" font-size="10.00">map_reads_bwa</text>
</g>
<!-- 17&#45;&gt;16 -->
<g id="edge37" class="edge">
<title>17&#45;&gt;16</title>
<path fill="none" stroke="grey" stroke-width="2" d="M509.69,-1511.85C503.63,-1474.75 489.24,-1386.81 481.93,-1342.1"/>
<polygon fill="grey" stroke="grey" stroke-width="2" points="485.39,-1341.54 480.32,-1332.23 478.48,-1342.67 485.39,-1341.54"/>
</g>
<!-- 18 -->
<g id="node19" class="node">
<title>18</title>
<path fill="none" stroke="#d8cb56" stroke-width="2" d="M282,-1620C282,-1620 229,-1620 229,-1620 223,-1620 217,-1614 217,-1608 217,-1608 217,-1596 217,-1596 217,-1590 223,-1584 229,-1584 229,-1584 282,-1584 282,-1584 288,-1584 294,-1590 294,-1596 294,-1596 294,-1608 294,-1608 294,-1614 288,-1620 282,-1620"/>
<text text-anchor="middle" x="255.5" y="-1599.5" font-family="sans" font-size="10.00">cutadapt_pe</text>
</g>
<!-- 18&#45;&gt;17 -->
<g id="edge39" class="edge">
<title>18&#45;&gt;17</title>
<path fill="none" stroke="grey" stroke-width="2" d="M294.25,-1590.44C336.76,-1578.87 405.43,-1560.16 454.39,-1546.83"/>
<polygon fill="grey" stroke="grey" stroke-width="2" points="455.48,-1550.16 464.21,-1544.15 453.64,-1543.4 455.48,-1550.16"/>
</g>
<!-- 28 -->
<g id="node29" class="node">
<title>28</title>
<path fill="none" stroke="#d85e56" stroke-width="2" d="M144.5,-1548C144.5,-1548 44.5,-1548 44.5,-1548 38.5,-1548 32.5,-1542 32.5,-1536 32.5,-1536 32.5,-1524 32.5,-1524 32.5,-1518 38.5,-1512 44.5,-1512 44.5,-1512 144.5,-1512 144.5,-1512 150.5,-1512 156.5,-1518 156.5,-1524 156.5,-1524 156.5,-1536 156.5,-1536 156.5,-1542 150.5,-1548 144.5,-1548"/>
<text text-anchor="middle" x="94.5" y="-1527.5" font-family="sans" font-size="10.00">map_reads_novoalign</text>
</g>
<!-- 18&#45;&gt;28 -->
<g id="edge57" class="edge">
<title>18&#45;&gt;28</title>
<path fill="none" stroke="grey" stroke-width="2" d="M216.94,-1584.23C194.86,-1574.63 166.95,-1562.5 143.35,-1552.24"/>
<polygon fill="grey" stroke="grey" stroke-width="2" points="144.43,-1548.89 133.87,-1548.12 141.64,-1555.31 144.43,-1548.89"/>
</g>
<!-- 19&#45;&gt;17 -->
<g id="edge40" class="edge">
<title>19&#45;&gt;17</title>
<path fill="none" stroke="grey" stroke-width="2" d="M541.86,-1583.7C537.37,-1575.64 531.94,-1565.89 526.98,-1556.98"/>
<polygon fill="grey" stroke="grey" stroke-width="2" points="529.95,-1555.14 522.03,-1548.1 523.84,-1558.54 529.95,-1555.14"/>
</g>
<!-- 20&#45;&gt;15 -->
<g id="edge33" class="edge">
<title>20&#45;&gt;15</title>
<path fill="none" stroke="grey" stroke-width="2" d="M481.12,-1223.87C486.25,-1199.56 495.71,-1154.82 501.79,-1126.01"/>
<polygon fill="grey" stroke="grey" stroke-width="2" points="505.23,-1126.7 503.87,-1116.19 498.38,-1125.25 505.23,-1126.7"/>
</g>
<!-- 20&#45;&gt;22 -->
<g id="edge45" class="edge">
<title>20&#45;&gt;22</title>
<path fill="none" stroke="grey" stroke-width="2" d="M533.96,-1223.97C566.8,-1214.06 608.37,-1201.51 642.81,-1191.12"/>
<polygon fill="grey" stroke="grey" stroke-width="2" points="644.23,-1194.35 652.79,-1188.11 642.21,-1187.65 644.23,-1194.35"/>
</g>
<!-- 21&#45;&gt;15 -->
<g id="edge36" class="edge">
<title>21&#45;&gt;15</title>
<path fill="none" stroke="grey" stroke-width="2" d="M915.09,-1223.73C887.54,-1203.38 838.62,-1170.06 791.5,-1152 710.81,-1121.08 610.11,-1107.77 552.87,-1102.38"/>
<polygon fill="grey" stroke="grey" stroke-width="2" points="552.98,-1098.87 542.7,-1101.46 552.35,-1105.84 552.98,-1098.87"/>
</g>
<!-- 21&#45;&gt;22 -->
<g id="edge50" class="edge">
<title>21&#45;&gt;22</title>
<path fill="none" stroke="grey" stroke-width="2" d="M897.41,-1228.33C892.72,-1226.87 888.01,-1225.4 883.5,-1224 847.96,-1212.99 808.28,-1200.89 775.8,-1191.04"/>
<polygon fill="grey" stroke="grey" stroke-width="2" points="776.55,-1187.61 765.96,-1188.05 774.52,-1194.3 776.55,-1187.61"/>
</g>
<!-- 22&#45;&gt;15 -->
<g id="edge31" class="edge">
<title>22&#45;&gt;15</title>
<path fill="none" stroke="grey" stroke-width="2" d="M660.34,-1151.97C627.32,-1140.52 584.16,-1125.57 552.13,-1114.46"/>
<polygon fill="grey" stroke="grey" stroke-width="2" points="553.16,-1111.12 542.57,-1111.15 550.87,-1117.73 553.16,-1111.12"/>
</g>
<!-- 23 -->
<g id="node24" class="node">
<title>23</title>
<path fill="none" stroke="#d87556" stroke-width="2" d="M823,-1332C823,-1332 728,-1332 728,-1332 722,-1332 716,-1326 716,-1320 716,-1320 716,-1308 716,-1308 716,-1302 722,-1296 728,-1296 728,-1296 823,-1296 823,-1296 829,-1296 835,-1302 835,-1308 835,-1308 835,-1320 835,-1320 835,-1326 829,-1332 823,-1332"/>
<text text-anchor="middle" x="775.5" y="-1311.5" font-family="sans" font-size="10.00">remove_iupac_codes</text>
</g>
<!-- 23&#45;&gt;22 -->
<g id="edge46" class="edge">
<title>23&#45;&gt;22</title>
<path fill="none" stroke="grey" stroke-width="2" d="M791.94,-1295.86C807.59,-1277.36 826.79,-1247.43 812.5,-1224 804.3,-1210.55 791.47,-1200.37 777.61,-1192.72"/>
<polygon fill="grey" stroke="grey" stroke-width="2" points="778.9,-1189.44 768.4,-1188.04 775.73,-1195.69 778.9,-1189.44"/>
</g>
<!-- 25 -->
<g id="node26" class="node">
<title>25</title>
<path fill="none" stroke="#56d8d8" stroke-width="2" d="M791.5,-1260C791.5,-1260 691.5,-1260 691.5,-1260 685.5,-1260 679.5,-1254 679.5,-1248 679.5,-1248 679.5,-1236 679.5,-1236 679.5,-1230 685.5,-1224 691.5,-1224 691.5,-1224 791.5,-1224 791.5,-1224 797.5,-1224 803.5,-1230 803.5,-1236 803.5,-1236 803.5,-1248 803.5,-1248 803.5,-1254 797.5,-1260 791.5,-1260"/>
<text text-anchor="middle" x="741.5" y="-1239.5" font-family="sans" font-size="10.00">tabix_known_variants</text>
</g>
<!-- 23&#45;&gt;25 -->
<g id="edge53" class="edge">
<title>23&#45;&gt;25</title>
<path fill="none" stroke="grey" stroke-width="2" d="M767.1,-1295.7C763.23,-1287.73 758.55,-1278.1 754.26,-1269.26"/>
<polygon fill="grey" stroke="grey" stroke-width="2" points="757.33,-1267.57 749.81,-1260.1 751.03,-1270.63 757.33,-1267.57"/>
</g>
<!-- 24&#45;&gt;23 -->
<g id="edge51" class="edge">
<title>24&#45;&gt;23</title>
<path fill="none" stroke="grey" stroke-width="2" d="M775.5,-1367.7C775.5,-1359.98 775.5,-1350.71 775.5,-1342.11"/>
<polygon fill="grey" stroke="grey" stroke-width="2" points="779,-1342.1 775.5,-1332.1 772,-1342.1 779,-1342.1"/>
</g>
<!-- 25&#45;&gt;22 -->
<g id="edge48" class="edge">
<title>25&#45;&gt;22</title>
<path fill="none" stroke="grey" stroke-width="2" d="M733.59,-1223.7C729.95,-1215.73 725.55,-1206.1 721.51,-1197.26"/>
<polygon fill="grey" stroke="grey" stroke-width="2" points="724.66,-1195.74 717.32,-1188.1 718.29,-1198.65 724.66,-1195.74"/>
</g>
<!-- 26 -->
<g id="node27" class="node">
<title>26</title>
<path fill="none" stroke="#afd856" stroke-width="2" d="M396,-1404C396,-1404 267,-1404 267,-1404 261,-1404 255,-1398 255,-1392 255,-1392 255,-1380 255,-1380 255,-1374 261,-1368 267,-1368 267,-1368 396,-1368 396,-1368 402,-1368 408,-1374 408,-1380 408,-1380 408,-1392 408,-1392 408,-1398 402,-1404 396,-1404"/>
<text text-anchor="middle" x="331.5" y="-1383.5" font-family="sans" font-size="10.00">novoalign_add_read_groups</text>
</g>
<!-- 26&#45;&gt;16 -->
<g id="edge38" class="edge">
<title>26&#45;&gt;16</title>
<path fill="none" stroke="grey" stroke-width="2" d="M367.22,-1367.88C387,-1358.39 411.77,-1346.51 432.83,-1336.42"/>
<polygon fill="grey" stroke="grey" stroke-width="2" points="434.4,-1339.55 441.9,-1332.07 431.37,-1333.24 434.4,-1339.55"/>
</g>
<!-- 27 -->
<g id="node28" class="node">
<title>27</title>
<path fill="none" stroke="#d8a456" stroke-width="2" d="M148.5,-1476C148.5,-1476 30.5,-1476 30.5,-1476 24.5,-1476 18.5,-1470 18.5,-1464 18.5,-1464 18.5,-1452 18.5,-1452 18.5,-1446 24.5,-1440 30.5,-1440 30.5,-1440 148.5,-1440 148.5,-1440 154.5,-1440 160.5,-1446 160.5,-1452 160.5,-1452 160.5,-1464 160.5,-1464 160.5,-1470 154.5,-1476 148.5,-1476"/>
<text text-anchor="middle" x="89.5" y="-1455.5" font-family="sans" font-size="10.00">novoalign_sam_sort_bam</text>
</g>
<!-- 27&#45;&gt;26 -->
<g id="edge54" class="edge">
<title>27&#45;&gt;26</title>
<path fill="none" stroke="grey" stroke-width="2" d="M148.39,-1439.97C182.79,-1430.01 226.38,-1417.41 262.4,-1406.99"/>
<polygon fill="grey" stroke="grey" stroke-width="2" points="263.71,-1410.25 272.35,-1404.11 261.77,-1403.53 263.71,-1410.25"/>
</g>
<!-- 28&#45;&gt;27 -->
<g id="edge55" class="edge">
<title>28&#45;&gt;27</title>
<path fill="none" stroke="grey" stroke-width="2" d="M93.26,-1511.7C92.71,-1503.98 92.05,-1494.71 91.44,-1486.11"/>
<polygon fill="grey" stroke="grey" stroke-width="2" points="94.93,-1485.83 90.72,-1476.1 87.94,-1486.33 94.93,-1485.83"/>
</g>
<!-- 29 -->
<g id="node30" class="node">
<title>29</title>
<path fill="none" stroke="#56d8b1" stroke-width="2" d="M135,-1692C135,-1692 12,-1692 12,-1692 6,-1692 0,-1686 0,-1680 0,-1680 0,-1668 0,-1668 0,-1662 6,-1656 12,-1656 12,-1656 135,-1656 135,-1656 141,-1656 147,-1662 147,-1668 147,-1668 147,-1680 147,-1680 147,-1686 141,-1692 135,-1692"/>
<text text-anchor="middle" x="73.5" y="-1671.5" font-family="sans" font-size="10.00">register_novoalign_license</text>
</g>
<!-- 29&#45;&gt;28 -->
<g id="edge56" class="edge">
<title>29&#45;&gt;28</title>
<path fill="none" stroke="grey" stroke-width="2" d="M64.2,-1655.97C55.54,-1637.83 45.15,-1608.43 53.5,-1584 56.94,-1573.93 63.16,-1564.28 69.73,-1556.05"/>
<polygon fill="grey" stroke="grey" stroke-width="2" points="72.5,-1558.2 76.33,-1548.32 67.18,-1553.65 72.5,-1558.2"/>
</g>
<!-- 29&#45;&gt;30 -->
<g id="edge60" class="edge">
<title>29&#45;&gt;30</title>
<path fill="none" stroke="grey" stroke-width="2" d="M82.89,-1655.7C87.26,-1647.64 92.56,-1637.89 97.4,-1628.98"/>
<polygon fill="grey" stroke="grey" stroke-width="2" points="100.52,-1630.56 102.21,-1620.1 94.37,-1627.22 100.52,-1630.56"/>
</g>
<!-- 30&#45;&gt;28 -->
<g id="edge58" class="edge">
<title>30&#45;&gt;28</title>
<path fill="none" stroke="grey" stroke-width="2" d="M107.3,-1583.7C105.4,-1575.9 103.12,-1566.51 101.02,-1557.83"/>
<polygon fill="grey" stroke="grey" stroke-width="2" points="104.42,-1557 98.65,-1548.1 97.61,-1558.65 104.42,-1557"/>
</g>
<!-- 31 -->
<g id="node32" class="node">
<title>31</title>
<path fill="none" stroke="#8fd856" stroke-width="2" d="M797,-900C797,-900 672,-900 672,-900 666,-900 660,-894 660,-888 660,-888 660,-876 660,-876 660,-870 666,-864 672,-864 672,-864 797,-864 797,-864 803,-864 809,-870 809,-876 809,-876 809,-888 809,-888 809,-894 803,-900 797,-900"/>
<text text-anchor="middle" x="734.5" y="-879.5" font-family="sans" font-size="10.00">mpileup_bcftools_reheader</text>
</g>
<!-- 31&#45;&gt;11 -->
<g id="edge17" class="edge">
<title>31&#45;&gt;11</title>
<path fill="none" stroke="grey" stroke-width="2" d="M746.19,-863.89C759.11,-845.43 780.96,-815.52 802.5,-792 811.73,-781.92 822.62,-771.61 832.46,-762.79"/>
<polygon fill="grey" stroke="grey" stroke-width="2" points="834.89,-765.32 840.07,-756.08 830.26,-760.07 834.89,-765.32"/>
</g>
<!-- 42 -->
<g id="node43" class="node">
<title>42</title>
<path fill="none" stroke="#56d873" stroke-width="2" d="M743.5,-828C743.5,-828 657.5,-828 657.5,-828 651.5,-828 645.5,-822 645.5,-816 645.5,-816 645.5,-804 645.5,-804 645.5,-798 651.5,-792 657.5,-792 657.5,-792 743.5,-792 743.5,-792 749.5,-792 755.5,-798 755.5,-804 755.5,-804 755.5,-816 755.5,-816 755.5,-822 749.5,-828 743.5,-828"/>
<text text-anchor="middle" x="700.5" y="-807.5" font-family="sans" font-size="10.00">index_bcftools_call</text>
</g>
<!-- 31&#45;&gt;42 -->
<g id="edge79" class="edge">
<title>31&#45;&gt;42</title>
<path fill="none" stroke="grey" stroke-width="2" d="M726.1,-863.7C722.23,-855.73 717.55,-846.1 713.26,-837.26"/>
<polygon fill="grey" stroke="grey" stroke-width="2" points="716.33,-835.57 708.81,-828.1 710.03,-838.63 716.33,-835.57"/>
</g>
<!-- 32 -->
<g id="node33" class="node">
<title>32</title>
<path fill="none" stroke="#56d8c1" stroke-width="2" d="M721,-972C721,-972 668,-972 668,-972 662,-972 656,-966 656,-960 656,-960 656,-948 656,-948 656,-942 662,-936 668,-936 668,-936 721,-936 721,-936 727,-936 733,-942 733,-948 733,-948 733,-960 733,-960 733,-966 727,-972 721,-972"/>
<text text-anchor="middle" x="694.5" y="-951.5" font-family="sans" font-size="10.00">bcftools_call</text>
</g>
<!-- 32&#45;&gt;31 -->
<g id="edge61" class="edge">
<title>32&#45;&gt;31</title>
<path fill="none" stroke="grey" stroke-width="2" d="M704.39,-935.7C708.99,-927.64 714.56,-917.89 719.65,-908.98"/>
<polygon fill="grey" stroke="grey" stroke-width="2" points="722.8,-910.52 724.73,-900.1 716.73,-907.05 722.8,-910.52"/>
</g>
<!-- 33&#45;&gt;32 -->
<g id="edge62" class="edge">
<title>33&#45;&gt;32</title>
<path fill="none" stroke="grey" stroke-width="2" d="M450.71,-1013.05C505.25,-1000.06 591.79,-979.45 645.76,-966.61"/>
<polygon fill="grey" stroke="grey" stroke-width="2" points="646.85,-969.94 655.77,-964.22 645.23,-963.13 646.85,-969.94"/>
</g>
<!-- 34 -->
<g id="node35" class="node">
<title>34</title>
<path fill="none" stroke="#56d89a" stroke-width="2" d="M630,-900C630,-900 487,-900 487,-900 481,-900 475,-894 475,-888 475,-888 475,-876 475,-876 475,-870 481,-864 487,-864 487,-864 630,-864 630,-864 636,-864 642,-870 642,-876 642,-876 642,-888 642,-888 642,-894 636,-900 630,-900"/>
<text text-anchor="middle" x="558.5" y="-879.5" font-family="sans" font-size="10.00">deepvariant_bcftools_reheader</text>
</g>
<!-- 34&#45;&gt;11 -->
<g id="edge22" class="edge">
<title>34&#45;&gt;11</title>
<path fill="none" stroke="grey" stroke-width="2" d="M535.83,-863.78C513.75,-844.95 486.13,-814.48 505.5,-792 538.91,-753.23 675.61,-742.39 769.29,-739.6"/>
<polygon fill="grey" stroke="grey" stroke-width="2" points="769.45,-743.1 779.35,-739.33 769.26,-736.1 769.45,-743.1"/>
</g>
<!-- 40 -->
<g id="node41" class="node">
<title>40</title>
<path fill="none" stroke="#56c1d8" stroke-width="2" d="M615,-828C615,-828 526,-828 526,-828 520,-828 514,-822 514,-816 514,-816 514,-804 514,-804 514,-798 520,-792 526,-792 526,-792 615,-792 615,-792 621,-792 627,-798 627,-804 627,-804 627,-816 627,-816 627,-822 621,-828 615,-828"/>
<text text-anchor="middle" x="570.5" y="-807.5" font-family="sans" font-size="10.00">index_deep_variant</text>
</g>
<!-- 34&#45;&gt;40 -->
<g id="edge77" class="edge">
<title>34&#45;&gt;40</title>
<path fill="none" stroke="grey" stroke-width="2" d="M561.47,-863.7C562.79,-855.98 564.38,-846.71 565.85,-838.11"/>
<polygon fill="grey" stroke="grey" stroke-width="2" points="569.33,-838.55 567.57,-828.1 562.43,-837.37 569.33,-838.55"/>
</g>
<!-- 35&#45;&gt;34 -->
<g id="edge66" class="edge">
<title>35&#45;&gt;34</title>
<path fill="none" stroke="grey" stroke-width="2" d="M307.88,-1007.87C359.77,-982.02 458.06,-933.04 514.91,-904.72"/>
<polygon fill="grey" stroke="grey" stroke-width="2" points="516.61,-907.78 524,-900.19 513.49,-901.52 516.61,-907.78"/>
</g>
<!-- 36 -->
<g id="node37" class="node">
<title>36</title>
<path fill="none" stroke="#56d88a" stroke-width="2" d="M972.5,-900C972.5,-900 838.5,-900 838.5,-900 832.5,-900 826.5,-894 826.5,-888 826.5,-888 826.5,-876 826.5,-876 826.5,-870 832.5,-864 838.5,-864 838.5,-864 972.5,-864 972.5,-864 978.5,-864 984.5,-870 984.5,-876 984.5,-876 984.5,-888 984.5,-888 984.5,-894 978.5,-900 972.5,-900"/>
<text text-anchor="middle" x="905.5" y="-879.5" font-family="sans" font-size="10.00">freebayes_bcftools_reheader</text>
</g>
<!-- 36&#45;&gt;11 -->
<g id="edge21" class="edge">
<title>36&#45;&gt;11</title>
<path fill="none" stroke="grey" stroke-width="2" d="M913.33,-863.86C920.59,-845.37 928.83,-815.43 918.5,-792 913.51,-780.69 904.79,-770.74 895.6,-762.62"/>
<polygon fill="grey" stroke="grey" stroke-width="2" points="897.78,-759.88 887.84,-756.23 893.33,-765.28 897.78,-759.88"/>
</g>
<!-- 43 -->
<g id="node44" class="node">
<title>43</title>
<path fill="none" stroke="#56d86b" stroke-width="2" d="M897.5,-828C897.5,-828 823.5,-828 823.5,-828 817.5,-828 811.5,-822 811.5,-816 811.5,-816 811.5,-804 811.5,-804 811.5,-798 817.5,-792 823.5,-792 823.5,-792 897.5,-792 897.5,-792 903.5,-792 909.5,-798 909.5,-804 909.5,-804 909.5,-816 909.5,-816 909.5,-822 903.5,-828 897.5,-828"/>
<text text-anchor="middle" x="860.5" y="-807.5" font-family="sans" font-size="10.00">index_freebayes</text>
</g>
<!-- 36&#45;&gt;43 -->
<g id="edge80" class="edge">
<title>36&#45;&gt;43</title>
<path fill="none" stroke="grey" stroke-width="2" d="M894.38,-863.7C889.14,-855.56 882.8,-845.69 877.02,-836.7"/>
<polygon fill="grey" stroke="grey" stroke-width="2" points="879.85,-834.62 871.5,-828.1 873.96,-838.41 879.85,-834.62"/>
</g>
<!-- 37&#45;&gt;36 -->
<g id="edge69" class="edge">
<title>37&#45;&gt;36</title>
<path fill="none" stroke="grey" stroke-width="2" d="M967.94,-1007.87C955.68,-983.35 933.02,-938.03 918.63,-909.26"/>
<polygon fill="grey" stroke="grey" stroke-width="2" points="921.7,-907.57 914.09,-900.19 915.44,-910.7 921.7,-907.57"/>
</g>
<!-- 38 -->
<g id="node39" class="node">
<title>38</title>
<path fill="none" stroke="#56b1d8" stroke-width="2" d="M1273,-900C1273,-900 1164,-900 1164,-900 1158,-900 1152,-894 1152,-888 1152,-888 1152,-876 1152,-876 1152,-870 1158,-864 1164,-864 1164,-864 1273,-864 1273,-864 1279,-864 1285,-870 1285,-876 1285,-876 1285,-888 1285,-888 1285,-894 1279,-900 1273,-900"/>
<text text-anchor="middle" x="1218.5" y="-879.5" font-family="sans" font-size="10.00">delly_bcftools_reheader</text>
</g>
<!-- 38&#45;&gt;11 -->
<g id="edge26" class="edge">
<title>38&#45;&gt;11</title>
<path fill="none" stroke="grey" stroke-width="2" d="M1213.04,-863.84C1205.54,-843.28 1190.02,-809.43 1164.5,-792 1130.62,-768.87 1028.51,-754.45 951.91,-746.59"/>
<polygon fill="grey" stroke="grey" stroke-width="2" points="952.05,-743.09 941.75,-745.57 951.36,-750.06 952.05,-743.09"/>
</g>
<!-- 44 -->
<g id="node45" class="node">
<title>44</title>
<path fill="none" stroke="#59d856" stroke-width="2" d="M1273,-828C1273,-828 1224,-828 1224,-828 1218,-828 1212,-822 1212,-816 1212,-816 1212,-804 1212,-804 1212,-798 1218,-792 1224,-792 1224,-792 1273,-792 1273,-792 1279,-792 1285,-798 1285,-804 1285,-804 1285,-816 1285,-816 1285,-822 1279,-828 1273,-828"/>
<text text-anchor="middle" x="1248.5" y="-807.5" font-family="sans" font-size="10.00">index_delly</text>
</g>
<!-- 38&#45;&gt;44 -->
<g id="edge81" class="edge">
<title>38&#45;&gt;44</title>
<path fill="none" stroke="grey" stroke-width="2" d="M1225.92,-863.7C1229.29,-855.81 1233.37,-846.3 1237.12,-837.55"/>
<polygon fill="grey" stroke="grey" stroke-width="2" points="1240.45,-838.67 1241.17,-828.1 1234.01,-835.92 1240.45,-838.67"/>
</g>
<!-- 39&#45;&gt;38 -->
<g id="edge73" class="edge">
<title>39&#45;&gt;38</title>
<path fill="none" stroke="grey" stroke-width="2" d="M1192.12,-1007.87C1197.25,-983.56 1206.71,-938.82 1212.79,-910.01"/>
<polygon fill="grey" stroke="grey" stroke-width="2" points="1216.23,-910.7 1214.87,-900.19 1209.38,-909.25 1216.23,-910.7"/>
</g>
<!-- 40&#45;&gt;11 -->
<g id="edge25" class="edge">
<title>40&#45;&gt;11</title>
<path fill="none" stroke="grey" stroke-width="2" d="M627.01,-794.37C630.22,-793.56 633.4,-792.77 636.5,-792 682.92,-780.53 734.89,-768.2 777.07,-758.33"/>
<polygon fill="grey" stroke="grey" stroke-width="2" points="778.08,-761.69 787.02,-756 776.48,-754.87 778.08,-761.69"/>
</g>
<!-- 41&#45;&gt;11 -->
<g id="edge23" class="edge">
<title>41&#45;&gt;11</title>
<path fill="none" stroke="grey" stroke-width="2" d="M1026.21,-791.97C995.34,-782.1 956.3,-769.62 923.87,-759.25"/>
<polygon fill="grey" stroke="grey" stroke-width="2" points="924.62,-755.82 914.03,-756.11 922.49,-762.49 924.62,-755.82"/>
</g>
<!-- 42&#45;&gt;11 -->
<g id="edge20" class="edge">
<title>42&#45;&gt;11</title>
<path fill="none" stroke="grey" stroke-width="2" d="M739.64,-791.88C761.51,-782.31 788.96,-770.3 812.16,-760.15"/>
<polygon fill="grey" stroke="grey" stroke-width="2" points="813.73,-763.28 821.49,-756.07 810.92,-756.87 813.73,-763.28"/>
</g>
<!-- 43&#45;&gt;11 -->
<g id="edge19" class="edge">
<title>43&#45;&gt;11</title>
<path fill="none" stroke="grey" stroke-width="2" d="M860.5,-791.7C860.5,-783.98 860.5,-774.71 860.5,-766.11"/>
<polygon fill="grey" stroke="grey" stroke-width="2" points="864,-766.1 860.5,-756.1 857,-766.1 864,-766.1"/>
</g>
<!-- 44&#45;&gt;11 -->
<g id="edge18" class="edge">
<title>44&#45;&gt;11</title>
<path fill="none" stroke="grey" stroke-width="2" d="M1211.94,-796.01C1207.12,-794.53 1202.22,-793.15 1197.5,-792 1115.4,-772.01 1020.13,-757.84 951.88,-749.21"/>
<polygon fill="grey" stroke="grey" stroke-width="2" points="951.95,-745.69 941.59,-747.92 951.08,-752.64 951.95,-745.69"/>
</g>
<!-- 45&#45;&gt;7 -->
<g id="edge13" class="edge">
<title>45&#45;&gt;7</title>
<path fill="none" stroke="grey" stroke-width="2" d="M527.46,-719.88C538.84,-710.53 551.64,-698.01 559.5,-684 570.17,-665 574.86,-640.64 576.91,-622.21"/>
<polygon fill="grey" stroke="grey" stroke-width="2" points="580.41,-622.41 577.84,-612.13 573.44,-621.76 580.41,-622.41"/>
</g>
<!-- 46 -->
<g id="node47" class="node">
<title>46</title>
<path fill="none" stroke="#56b9d8" stroke-width="2" d="M538.5,-684C538.5,-684 468.5,-684 468.5,-684 462.5,-684 456.5,-678 456.5,-672 456.5,-672 456.5,-660 456.5,-660 456.5,-654 462.5,-648 468.5,-648 468.5,-648 538.5,-648 538.5,-648 544.5,-648 550.5,-654 550.5,-660 550.5,-660 550.5,-672 550.5,-672 550.5,-678 544.5,-684 538.5,-684"/>
<text text-anchor="middle" x="503.5" y="-663.5" font-family="sans" font-size="10.00">samtools_index</text>
</g>
<!-- 45&#45;&gt;46 -->
<g id="edge83" class="edge">
<title>45&#45;&gt;46</title>
<path fill="none" stroke="grey" stroke-width="2" d="M503.5,-719.7C503.5,-711.98 503.5,-702.71 503.5,-694.11"/>
<polygon fill="grey" stroke="grey" stroke-width="2" points="507,-694.1 503.5,-684.1 500,-694.1 507,-694.1"/>
</g>
<!-- 46&#45;&gt;7 -->
<g id="edge14" class="edge">
<title>46&#45;&gt;7</title>
<path fill="none" stroke="grey" stroke-width="2" d="M522.04,-647.7C531.3,-639.05 542.66,-628.45 552.76,-619.03"/>
<polygon fill="grey" stroke="grey" stroke-width="2" points="555.25,-621.49 560.17,-612.1 550.48,-616.37 555.25,-621.49"/>
</g>
<!-- 47&#45;&gt;3 -->
<g id="edge6" class="edge">
<title>47&#45;&gt;3</title>
<path fill="none" stroke="grey" stroke-width="2" d="M553.3,-287.88C540.09,-278.89 523.71,-267.76 509.39,-258.03"/>
<polygon fill="grey" stroke="grey" stroke-width="2" points="511.03,-254.92 500.79,-252.19 507.1,-260.71 511.03,-254.92"/>
</g>
<!-- 47&#45;&gt;50 -->
<g id="edge88" class="edge">
<title>47&#45;&gt;50</title>
<path fill="none" stroke="grey" stroke-width="2" d="M603.21,-287.88C616.17,-278.89 632.23,-267.76 646.27,-258.03"/>
<polygon fill="grey" stroke="grey" stroke-width="2" points="648.47,-260.76 654.7,-252.19 644.48,-255.01 648.47,-260.76"/>
</g>
<!-- 48 -->
<g id="node49" class="node">
<title>48</title>
<path fill="none" stroke="#d89c56" stroke-width="2" d="M706.5,-108C706.5,-108 630.5,-108 630.5,-108 624.5,-108 618.5,-102 618.5,-96 618.5,-96 618.5,-84 618.5,-84 618.5,-78 624.5,-72 630.5,-72 630.5,-72 706.5,-72 706.5,-72 712.5,-72 718.5,-78 718.5,-84 718.5,-84 718.5,-96 718.5,-96 718.5,-102 712.5,-108 706.5,-108"/>
<text text-anchor="middle" x="668.5" y="-87.5" font-family="sans" font-size="10.00">norm_final_vcf_2</text>
</g>
<!-- 48&#45;&gt;0 -->
<g id="edge1" class="edge">
<title>48&#45;&gt;0</title>
<path fill="none" stroke="grey" stroke-width="2" d="M651.2,-71.7C642.64,-63.14 632.16,-52.66 622.8,-43.3"/>
<polygon fill="grey" stroke="grey" stroke-width="2" points="625.15,-40.7 615.6,-36.1 620.2,-45.65 625.15,-40.7"/>
</g>
<!-- 49 -->
<g id="node50" class="node">
<title>49</title>
<path fill="none" stroke="#b6d856" stroke-width="2" d="M700.5,-180C700.5,-180 646.5,-180 646.5,-180 640.5,-180 634.5,-174 634.5,-168 634.5,-168 634.5,-156 634.5,-156 634.5,-150 640.5,-144 646.5,-144 646.5,-144 700.5,-144 700.5,-144 706.5,-144 712.5,-150 712.5,-156 712.5,-156 712.5,-168 712.5,-168 712.5,-174 706.5,-180 700.5,-180"/>
<text text-anchor="middle" x="673.5" y="-159.5" font-family="sans" font-size="10.00">bcf_to_vcf_2</text>
</g>
<!-- 49&#45;&gt;48 -->
<g id="edge85" class="edge">
<title>49&#45;&gt;48</title>
<path fill="none" stroke="grey" stroke-width="2" d="M672.26,-143.7C671.71,-135.98 671.05,-126.71 670.44,-118.11"/>
<polygon fill="grey" stroke="grey" stroke-width="2" points="673.93,-117.83 669.72,-108.1 666.94,-118.33 673.93,-117.83"/>
</g>
<!-- 50&#45;&gt;49 -->
<g id="edge86" class="edge">
<title>50&#45;&gt;49</title>
<path fill="none" stroke="grey" stroke-width="2" d="M678.02,-215.7C677.36,-207.98 676.56,-198.71 675.82,-190.11"/>
<polygon fill="grey" stroke="grey" stroke-width="2" points="679.31,-189.77 674.97,-180.1 672.33,-190.37 679.31,-189.77"/>
</g>
</g>
</svg>
