<?xml version="1.0" encoding="UTF-8" standalone="no"?>
<!DOCTYPE svg PUBLIC "-//W3C//DTD SVG 1.1//EN"
 "http://www.w3.org/Graphics/SVG/1.1/DTD/svg11.dtd">
<!-- Generated by graphviz version 2.42.3 (20191010.1750)
 -->
<!-- Title: snakemake_dag Pages: 1 -->
<svg width="1758pt" height="1561pt"
 viewBox="0.00 0.00 1758.00 1561.00" xmlns="http://www.w3.org/2000/svg" xmlns:xlink="http://www.w3.org/1999/xlink">
<g id="graph0" class="graph" transform="scale(1 1) rotate(0) translate(4 1557)">
<title>snakemake_dag</title>
<polygon fill="white" stroke="transparent" points="-4,4 -4,-1557 1754,-1557 1754,4 -4,4"/>
<!-- 0 -->
<g id="node1" class="node">
<title>0</title>
<path fill="none" stroke="#56b1d8" stroke-width="2" d="M911,-36C911,-36 881,-36 881,-36 875,-36 869,-30 869,-24 869,-24 869,-12 869,-12 869,-6 875,0 881,0 881,0 911,0 911,0 917,0 923,-6 923,-12 923,-12 923,-24 923,-24 923,-30 917,-36 911,-36"/>
<text text-anchor="middle" x="896" y="-15.5" font-family="sans" font-size="10.00">all</text>
</g>
<!-- 1 -->
<g id="node2" class="node">
<title>1</title>
<path fill="none" stroke="#56d8b1" stroke-width="2" d="M928.5,-108C928.5,-108 863.5,-108 863.5,-108 857.5,-108 851.5,-102 851.5,-96 851.5,-96 851.5,-84 851.5,-84 851.5,-78 857.5,-72 863.5,-72 863.5,-72 928.5,-72 928.5,-72 934.5,-72 940.5,-78 940.5,-84 940.5,-84 940.5,-96 940.5,-96 940.5,-102 934.5,-108 928.5,-108"/>
<text text-anchor="middle" x="896" y="-87.5" font-family="sans" font-size="10.00">norm_final_vcf</text>
</g>
<!-- 1&#45;&gt;0 -->
<g id="edge1" class="edge">
<title>1&#45;&gt;0</title>
<path fill="none" stroke="grey" stroke-width="2" d="M896,-71.7C896,-63.98 896,-54.71 896,-46.11"/>
<polygon fill="grey" stroke="grey" stroke-width="2" points="899.5,-46.1 896,-36.1 892.5,-46.1 899.5,-46.1"/>
</g>
<!-- 2 -->
<g id="node3" class="node">
<title>2</title>
<path fill="none" stroke="#70d856" stroke-width="2" d="M917.5,-180C917.5,-180 874.5,-180 874.5,-180 868.5,-180 862.5,-174 862.5,-168 862.5,-168 862.5,-156 862.5,-156 862.5,-150 868.5,-144 874.5,-144 874.5,-144 917.5,-144 917.5,-144 923.5,-144 929.5,-150 929.5,-156 929.5,-156 929.5,-168 929.5,-168 929.5,-174 923.5,-180 917.5,-180"/>
<text text-anchor="middle" x="896" y="-159.5" font-family="sans" font-size="10.00">bcf_to_vcf</text>
</g>
<!-- 2&#45;&gt;1 -->
<g id="edge2" class="edge">
<title>2&#45;&gt;1</title>
<path fill="none" stroke="grey" stroke-width="2" d="M896,-143.7C896,-135.98 896,-126.71 896,-118.11"/>
<polygon fill="grey" stroke="grey" stroke-width="2" points="899.5,-118.1 896,-108.1 892.5,-118.1 899.5,-118.1"/>
</g>
<!-- 3 -->
<g id="node4" class="node">
<title>3</title>
<path fill="none" stroke="#566bd8" stroke-width="2" d="M957.5,-252C957.5,-252 834.5,-252 834.5,-252 828.5,-252 822.5,-246 822.5,-240 822.5,-240 822.5,-228 822.5,-228 822.5,-222 828.5,-216 834.5,-216 834.5,-216 957.5,-216 957.5,-216 963.5,-216 969.5,-222 969.5,-228 969.5,-228 969.5,-240 969.5,-240 969.5,-246 963.5,-252 957.5,-252"/>
<text text-anchor="middle" x="896" y="-231.5" font-family="sans" font-size="10.00">bcftools_concat_final_calls</text>
</g>
<!-- 3&#45;&gt;2 -->
<g id="edge3" class="edge">
<title>3&#45;&gt;2</title>
<path fill="none" stroke="grey" stroke-width="2" d="M896,-215.7C896,-207.98 896,-198.71 896,-190.11"/>
<polygon fill="grey" stroke="grey" stroke-width="2" points="899.5,-190.1 896,-180.1 892.5,-190.1 899.5,-190.1"/>
</g>
<!-- 4 -->
<g id="node5" class="node">
<title>4</title>
<path fill="none" stroke="#d6d856" stroke-width="2" d="M281,-396C281,-396 225,-396 225,-396 219,-396 213,-390 213,-384 213,-384 213,-372 213,-372 213,-366 219,-360 225,-360 225,-360 281,-360 281,-360 287,-360 293,-366 293,-372 293,-372 293,-384 293,-384 293,-390 287,-396 281,-396"/>
<text text-anchor="middle" x="253" y="-381" font-family="sans" font-size="10.00">control_fdr</text>
<text text-anchor="middle" x="253" y="-370" font-family="sans" font-size="10.00">vartype: SNV</text>
</g>
<!-- 4&#45;&gt;3 -->
<g id="edge4" class="edge">
<title>4&#45;&gt;3</title>
<path fill="none" stroke="grey" stroke-width="2" d="M212.66,-360.47C197.37,-351.98 181.59,-340 173,-324 165.43,-309.9 162.11,-299.72 173,-288 215.75,-242 631.37,-235.51 812.41,-234.89"/>
<polygon fill="grey" stroke="grey" stroke-width="2" points="812.44,-238.39 822.43,-234.86 812.42,-231.39 812.44,-238.39"/>
</g>
<!-- 55 -->
<g id="node56" class="node">
<title>55</title>
<path fill="none" stroke="#d89c56" stroke-width="2" d="M312,-324C312,-324 194,-324 194,-324 188,-324 182,-318 182,-312 182,-312 182,-300 182,-300 182,-294 188,-288 194,-288 194,-288 312,-288 312,-288 318,-288 324,-294 324,-300 324,-300 324,-312 324,-312 324,-318 318,-324 312,-324"/>
<text text-anchor="middle" x="253" y="-303.5" font-family="sans" font-size="10.00">bcftools_index_final_calls</text>
</g>
<!-- 4&#45;&gt;55 -->
<g id="edge122" class="edge">
<title>4&#45;&gt;55</title>
<path fill="none" stroke="grey" stroke-width="2" d="M253,-359.7C253,-351.98 253,-342.71 253,-334.11"/>
<polygon fill="grey" stroke="grey" stroke-width="2" points="256.5,-334.1 253,-324.1 249.5,-334.1 256.5,-334.1"/>
</g>
<!-- 5 -->
<g id="node6" class="node">
<title>5</title>
<path fill="none" stroke="#a7d856" stroke-width="2" d="M918,-468C918,-468 874,-468 874,-468 868,-468 862,-462 862,-456 862,-456 862,-444 862,-444 862,-438 868,-432 874,-432 874,-432 918,-432 918,-432 924,-432 930,-438 930,-444 930,-444 930,-456 930,-456 930,-462 924,-468 918,-468"/>
<text text-anchor="middle" x="896" y="-447.5" font-family="sans" font-size="10.00">filter_odds</text>
</g>
<!-- 5&#45;&gt;4 -->
<g id="edge20" class="edge">
<title>5&#45;&gt;4</title>
<path fill="none" stroke="grey" stroke-width="2" d="M861.92,-445.4C781.84,-436.94 575.41,-415.04 403,-396 369.68,-392.32 332.2,-388.07 303.05,-384.75"/>
<polygon fill="grey" stroke="grey" stroke-width="2" points="303.44,-381.27 293.1,-383.61 302.64,-388.22 303.44,-381.27"/>
</g>
<!-- 48 -->
<g id="node49" class="node">
<title>48</title>
<path fill="none" stroke="#d6d856" stroke-width="2" d="M477.5,-396C477.5,-396 424.5,-396 424.5,-396 418.5,-396 412.5,-390 412.5,-384 412.5,-384 412.5,-372 412.5,-372 412.5,-366 418.5,-360 424.5,-360 424.5,-360 477.5,-360 477.5,-360 483.5,-360 489.5,-366 489.5,-372 489.5,-372 489.5,-384 489.5,-384 489.5,-390 483.5,-396 477.5,-396"/>
<text text-anchor="middle" x="451" y="-381" font-family="sans" font-size="10.00">control_fdr</text>
<text text-anchor="middle" x="451" y="-370" font-family="sans" font-size="10.00">vartype: INS</text>
</g>
<!-- 5&#45;&gt;48 -->
<g id="edge115" class="edge">
<title>5&#45;&gt;48</title>
<path fill="none" stroke="grey" stroke-width="2" d="M861.82,-443.62C783.43,-431.29 590.5,-400.94 499.72,-386.66"/>
<polygon fill="grey" stroke="grey" stroke-width="2" points="500.11,-383.18 489.69,-385.09 499.02,-390.1 500.11,-383.18"/>
</g>
<!-- 49 -->
<g id="node50" class="node">
<title>49</title>
<path fill="none" stroke="#d6d856" stroke-width="2" d="M676.5,-396C676.5,-396 621.5,-396 621.5,-396 615.5,-396 609.5,-390 609.5,-384 609.5,-384 609.5,-372 609.5,-372 609.5,-366 615.5,-360 621.5,-360 621.5,-360 676.5,-360 676.5,-360 682.5,-360 688.5,-366 688.5,-372 688.5,-372 688.5,-384 688.5,-384 688.5,-390 682.5,-396 676.5,-396"/>
<text text-anchor="middle" x="649" y="-381" font-family="sans" font-size="10.00">control_fdr</text>
<text text-anchor="middle" x="649" y="-370" font-family="sans" font-size="10.00">vartype: DEL</text>
</g>
<!-- 5&#45;&gt;49 -->
<g id="edge116" class="edge">
<title>5&#45;&gt;49</title>
<path fill="none" stroke="grey" stroke-width="2" d="M861.92,-439.34C819.57,-427.34 747,-406.77 698.52,-393.03"/>
<polygon fill="grey" stroke="grey" stroke-width="2" points="699.44,-389.66 688.86,-390.3 697.53,-396.39 699.44,-389.66"/>
</g>
<!-- 50 -->
<g id="node51" class="node">
<title>50</title>
<path fill="none" stroke="#d6d856" stroke-width="2" d="M875.5,-396C875.5,-396 816.5,-396 816.5,-396 810.5,-396 804.5,-390 804.5,-384 804.5,-384 804.5,-372 804.5,-372 804.5,-366 810.5,-360 816.5,-360 816.5,-360 875.5,-360 875.5,-360 881.5,-360 887.5,-366 887.5,-372 887.5,-372 887.5,-384 887.5,-384 887.5,-390 881.5,-396 875.5,-396"/>
<text text-anchor="middle" x="846" y="-381" font-family="sans" font-size="10.00">control_fdr</text>
<text text-anchor="middle" x="846" y="-370" font-family="sans" font-size="10.00">vartype: MNV</text>
</g>
<!-- 5&#45;&gt;50 -->
<g id="edge117" class="edge">
<title>5&#45;&gt;50</title>
<path fill="none" stroke="grey" stroke-width="2" d="M883.64,-431.7C877.77,-423.47 870.63,-413.48 864.16,-404.42"/>
<polygon fill="grey" stroke="grey" stroke-width="2" points="866.88,-402.21 858.22,-396.1 861.18,-406.28 866.88,-402.21"/>
</g>
<!-- 51 -->
<g id="node52" class="node">
<title>51</title>
<path fill="none" stroke="#d6d856" stroke-width="2" d="M976,-396C976,-396 918,-396 918,-396 912,-396 906,-390 906,-384 906,-384 906,-372 906,-372 906,-366 912,-360 918,-360 918,-360 976,-360 976,-360 982,-360 988,-366 988,-372 988,-372 988,-384 988,-384 988,-390 982,-396 976,-396"/>
<text text-anchor="middle" x="947" y="-381" font-family="sans" font-size="10.00">control_fdr</text>
<text text-anchor="middle" x="947" y="-370" font-family="sans" font-size="10.00">vartype: BND</text>
</g>
<!-- 5&#45;&gt;51 -->
<g id="edge118" class="edge">
<title>5&#45;&gt;51</title>
<path fill="none" stroke="grey" stroke-width="2" d="M908.61,-431.7C914.6,-423.47 921.88,-413.48 928.48,-404.42"/>
<polygon fill="grey" stroke="grey" stroke-width="2" points="931.48,-406.25 934.54,-396.1 925.82,-402.13 931.48,-406.25"/>
</g>
<!-- 52 -->
<g id="node53" class="node">
<title>52</title>
<path fill="none" stroke="#d6d856" stroke-width="2" d="M1170.5,-396C1170.5,-396 1117.5,-396 1117.5,-396 1111.5,-396 1105.5,-390 1105.5,-384 1105.5,-384 1105.5,-372 1105.5,-372 1105.5,-366 1111.5,-360 1117.5,-360 1117.5,-360 1170.5,-360 1170.5,-360 1176.5,-360 1182.5,-366 1182.5,-372 1182.5,-372 1182.5,-384 1182.5,-384 1182.5,-390 1176.5,-396 1170.5,-396"/>
<text text-anchor="middle" x="1144" y="-381" font-family="sans" font-size="10.00">control_fdr</text>
<text text-anchor="middle" x="1144" y="-370" font-family="sans" font-size="10.00">vartype: INV</text>
</g>
<!-- 5&#45;&gt;52 -->
<g id="edge119" class="edge">
<title>5&#45;&gt;52</title>
<path fill="none" stroke="grey" stroke-width="2" d="M930.22,-439.34C973.11,-427.23 1046.88,-406.41 1095.55,-392.67"/>
<polygon fill="grey" stroke="grey" stroke-width="2" points="1096.56,-396.03 1105.24,-389.94 1094.66,-389.29 1096.56,-396.03"/>
</g>
<!-- 53 -->
<g id="node54" class="node">
<title>53</title>
<path fill="none" stroke="#d6d856" stroke-width="2" d="M1370.5,-396C1370.5,-396 1313.5,-396 1313.5,-396 1307.5,-396 1301.5,-390 1301.5,-384 1301.5,-384 1301.5,-372 1301.5,-372 1301.5,-366 1307.5,-360 1313.5,-360 1313.5,-360 1370.5,-360 1370.5,-360 1376.5,-360 1382.5,-366 1382.5,-372 1382.5,-372 1382.5,-384 1382.5,-384 1382.5,-390 1376.5,-396 1370.5,-396"/>
<text text-anchor="middle" x="1342" y="-381" font-family="sans" font-size="10.00">control_fdr</text>
<text text-anchor="middle" x="1342" y="-370" font-family="sans" font-size="10.00">vartype: DUP</text>
</g>
<!-- 5&#45;&gt;53 -->
<g id="edge120" class="edge">
<title>5&#45;&gt;53</title>
<path fill="none" stroke="grey" stroke-width="2" d="M930.26,-443.62C1008.31,-431.37 1199.68,-401.34 1291.39,-386.94"/>
<polygon fill="grey" stroke="grey" stroke-width="2" points="1291.93,-390.4 1301.27,-385.39 1290.85,-383.49 1291.93,-390.4"/>
</g>
<!-- 54 -->
<g id="node55" class="node">
<title>54</title>
<path fill="none" stroke="#d6d856" stroke-width="2" d="M1567.5,-396C1567.5,-396 1512.5,-396 1512.5,-396 1506.5,-396 1500.5,-390 1500.5,-384 1500.5,-384 1500.5,-372 1500.5,-372 1500.5,-366 1506.5,-360 1512.5,-360 1512.5,-360 1567.5,-360 1567.5,-360 1573.5,-360 1579.5,-366 1579.5,-372 1579.5,-372 1579.5,-384 1579.5,-384 1579.5,-390 1573.5,-396 1567.5,-396"/>
<text text-anchor="middle" x="1540" y="-381" font-family="sans" font-size="10.00">control_fdr</text>
<text text-anchor="middle" x="1540" y="-370" font-family="sans" font-size="10.00">vartype: REP</text>
</g>
<!-- 5&#45;&gt;54 -->
<g id="edge121" class="edge">
<title>5&#45;&gt;54</title>
<path fill="none" stroke="grey" stroke-width="2" d="M930.22,-445.42C1010.62,-436.99 1217.9,-415.14 1391,-396 1424.07,-392.34 1461.26,-388.1 1490.21,-384.77"/>
<polygon fill="grey" stroke="grey" stroke-width="2" points="1490.95,-388.21 1500.48,-383.58 1490.15,-381.25 1490.95,-388.21"/>
</g>
<!-- 6 -->
<g id="node7" class="node">
<title>6</title>
<path fill="none" stroke="#ced856" stroke-width="2" d="M934.5,-540C934.5,-540 857.5,-540 857.5,-540 851.5,-540 845.5,-534 845.5,-528 845.5,-528 845.5,-516 845.5,-516 845.5,-510 851.5,-504 857.5,-504 857.5,-504 934.5,-504 934.5,-504 940.5,-504 946.5,-510 946.5,-516 946.5,-516 946.5,-528 946.5,-528 946.5,-534 940.5,-540 934.5,-540"/>
<text text-anchor="middle" x="896" y="-519.5" font-family="sans" font-size="10.00">varlociraptor_call</text>
</g>
<!-- 6&#45;&gt;5 -->
<g id="edge21" class="edge">
<title>6&#45;&gt;5</title>
<path fill="none" stroke="grey" stroke-width="2" d="M896,-503.7C896,-495.98 896,-486.71 896,-478.11"/>
<polygon fill="grey" stroke="grey" stroke-width="2" points="899.5,-478.1 896,-468.1 892.5,-478.1 899.5,-478.1"/>
</g>
<!-- 7 -->
<g id="node8" class="node">
<title>7</title>
<path fill="none" stroke="#61d856" stroke-width="2" d="M952.5,-612C952.5,-612 839.5,-612 839.5,-612 833.5,-612 827.5,-606 827.5,-600 827.5,-600 827.5,-588 827.5,-588 827.5,-582 833.5,-576 839.5,-576 839.5,-576 952.5,-576 952.5,-576 958.5,-576 964.5,-582 964.5,-588 964.5,-588 964.5,-600 964.5,-600 964.5,-606 958.5,-612 952.5,-612"/>
<text text-anchor="middle" x="896" y="-591.5" font-family="sans" font-size="10.00">varlociraptor_preprocess</text>
</g>
<!-- 7&#45;&gt;6 -->
<g id="edge22" class="edge">
<title>7&#45;&gt;6</title>
<path fill="none" stroke="grey" stroke-width="2" d="M896,-575.7C896,-567.98 896,-558.71 896,-550.11"/>
<polygon fill="grey" stroke="grey" stroke-width="2" points="899.5,-550.1 896,-540.1 892.5,-550.1 899.5,-550.1"/>
</g>
<!-- 8 -->
<g id="node9" class="node">
<title>8</title>
<path fill="none" stroke="#5682d8" stroke-width="2" d="M1377.5,-1553C1377.5,-1553 1324.5,-1553 1324.5,-1553 1318.5,-1553 1312.5,-1547 1312.5,-1541 1312.5,-1541 1312.5,-1529 1312.5,-1529 1312.5,-1523 1318.5,-1517 1324.5,-1517 1324.5,-1517 1377.5,-1517 1377.5,-1517 1383.5,-1517 1389.5,-1523 1389.5,-1529 1389.5,-1529 1389.5,-1541 1389.5,-1541 1389.5,-1547 1383.5,-1553 1377.5,-1553"/>
<text text-anchor="middle" x="1351" y="-1532.5" font-family="sans" font-size="10.00">get_genome</text>
</g>
<!-- 8&#45;&gt;7 -->
<g id="edge23" class="edge">
<title>8&#45;&gt;7</title>
<path fill="none" stroke="grey" stroke-width="2" d="M1389.69,-1531.92C1468.11,-1527.08 1642.56,-1512.95 1692,-1481 1731.65,-1455.37 1750,-1439.21 1750,-1392 1750,-1392 1750,-1392 1750,-737 1750,-658.86 1186.39,-613.96 974.91,-599.87"/>
<polygon fill="grey" stroke="grey" stroke-width="2" points="975.01,-596.37 964.8,-599.2 974.55,-603.35 975.01,-596.37"/>
</g>
<!-- 9 -->
<g id="node10" class="node">
<title>9</title>
<path fill="none" stroke="#d8c356" stroke-width="2" d="M879,-1337C879,-1337 817,-1337 817,-1337 811,-1337 805,-1331 805,-1325 805,-1325 805,-1313 805,-1313 805,-1307 811,-1301 817,-1301 817,-1301 879,-1301 879,-1301 885,-1301 891,-1307 891,-1313 891,-1313 891,-1325 891,-1325 891,-1331 885,-1337 879,-1337"/>
<text text-anchor="middle" x="848" y="-1316.5" font-family="sans" font-size="10.00">genome_faidx</text>
</g>
<!-- 8&#45;&gt;9 -->
<g id="edge28" class="edge">
<title>8&#45;&gt;9</title>
<path fill="none" stroke="grey" stroke-width="2" d="M1312.41,-1521.61C1249.06,-1500.84 1119.52,-1456.59 1014,-1409 968.91,-1388.66 919.14,-1361.28 885.97,-1342.29"/>
<polygon fill="grey" stroke="grey" stroke-width="2" points="887.49,-1339.12 877.07,-1337.16 883.99,-1345.19 887.49,-1339.12"/>
</g>
<!-- 13 -->
<g id="node14" class="node">
<title>13</title>
<path fill="none" stroke="#d85656" stroke-width="2" d="M1669,-900C1669,-900 1617,-900 1617,-900 1611,-900 1605,-894 1605,-888 1605,-888 1605,-876 1605,-876 1605,-870 1611,-864 1617,-864 1617,-864 1669,-864 1669,-864 1675,-864 1681,-870 1681,-876 1681,-876 1681,-888 1681,-888 1681,-894 1675,-900 1669,-900"/>
<text text-anchor="middle" x="1643" y="-879.5" font-family="sans" font-size="10.00">gatk_calling</text>
</g>
<!-- 8&#45;&gt;13 -->
<g id="edge42" class="edge">
<title>8&#45;&gt;13</title>
<path fill="none" stroke="grey" stroke-width="2" d="M1389.51,-1531.31C1461.89,-1525.63 1614.81,-1510.43 1658,-1481 1696.23,-1454.94 1712,-1438.27 1712,-1392 1712,-1392 1712,-1392 1712,-1025 1712,-980.48 1684.22,-935.29 1663.92,-908.2"/>
<polygon fill="grey" stroke="grey" stroke-width="2" points="1666.52,-905.84 1657.63,-900.07 1660.98,-910.12 1666.52,-905.84"/>
</g>
<!-- 14 -->
<g id="node15" class="node">
<title>14</title>
<path fill="none" stroke="#78d856" stroke-width="2" d="M1321,-972C1321,-972 1275,-972 1275,-972 1269,-972 1263,-966 1263,-960 1263,-960 1263,-948 1263,-948 1263,-942 1269,-936 1275,-936 1275,-936 1321,-936 1321,-936 1327,-936 1333,-942 1333,-948 1333,-948 1333,-960 1333,-960 1333,-966 1327,-972 1321,-972"/>
<text text-anchor="middle" x="1298" y="-951.5" font-family="sans" font-size="10.00">apply_bqsr</text>
</g>
<!-- 8&#45;&gt;14 -->
<g id="edge45" class="edge">
<title>8&#45;&gt;14</title>
<path fill="none" stroke="grey" stroke-width="2" d="M1389.69,-1524.08C1413.23,-1516.13 1442.1,-1502.65 1460,-1481 1486.1,-1449.42 1484,-1432.97 1484,-1392 1484,-1392 1484,-1392 1484,-1174 1484,-1083.98 1391.58,-1012.05 1337.03,-977.44"/>
<polygon fill="grey" stroke="grey" stroke-width="2" points="1338.64,-974.32 1328.3,-972.01 1334.94,-980.26 1338.64,-974.32"/>
</g>
<!-- 19 -->
<g id="node20" class="node">
<title>19</title>
<path fill="none" stroke="#d8b456" stroke-width="2" d="M598,-1118.5C598,-1118.5 542,-1118.5 542,-1118.5 536,-1118.5 530,-1112.5 530,-1106.5 530,-1106.5 530,-1094.5 530,-1094.5 530,-1088.5 536,-1082.5 542,-1082.5 542,-1082.5 598,-1082.5 598,-1082.5 604,-1082.5 610,-1088.5 610,-1094.5 610,-1094.5 610,-1106.5 610,-1106.5 610,-1112.5 604,-1118.5 598,-1118.5"/>
<text text-anchor="middle" x="570" y="-1098" font-family="sans" font-size="10.00">genome_dict</text>
</g>
<!-- 8&#45;&gt;19 -->
<g id="edge52" class="edge">
<title>8&#45;&gt;19</title>
<path fill="none" stroke="grey" stroke-width="2" d="M1312.24,-1531.16C1192.8,-1520.31 826.9,-1470.96 634,-1265 597.55,-1226.09 581.03,-1164.02 574.23,-1128.61"/>
<polygon fill="grey" stroke="grey" stroke-width="2" points="577.63,-1127.75 572.41,-1118.53 570.74,-1128.99 577.63,-1127.75"/>
</g>
<!-- 20 -->
<g id="node21" class="node">
<title>20</title>
<path fill="none" stroke="#56d8d8" stroke-width="2" d="M1189.5,-1044C1189.5,-1044 1068.5,-1044 1068.5,-1044 1062.5,-1044 1056.5,-1038 1056.5,-1032 1056.5,-1032 1056.5,-1020 1056.5,-1020 1056.5,-1014 1062.5,-1008 1068.5,-1008 1068.5,-1008 1189.5,-1008 1189.5,-1008 1195.5,-1008 1201.5,-1014 1201.5,-1020 1201.5,-1020 1201.5,-1032 1201.5,-1032 1201.5,-1038 1195.5,-1044 1189.5,-1044"/>
<text text-anchor="middle" x="1129" y="-1023.5" font-family="sans" font-size="10.00">recalibrate_base_qualities</text>
</g>
<!-- 8&#45;&gt;20 -->
<g id="edge55" class="edge">
<title>8&#45;&gt;20</title>
<path fill="none" stroke="grey" stroke-width="2" d="M1341.84,-1516.67C1312.43,-1460.6 1218.82,-1278.65 1158,-1121 1149.44,-1098.82 1141.62,-1072.96 1136.26,-1053.99"/>
<polygon fill="grey" stroke="grey" stroke-width="2" points="1139.59,-1052.92 1133.54,-1044.22 1132.85,-1054.79 1139.59,-1052.92"/>
</g>
<!-- 25 -->
<g id="node26" class="node">
<title>25</title>
<path fill="none" stroke="#d85656" stroke-width="2" d="M997,-900C997,-900 945,-900 945,-900 939,-900 933,-894 933,-888 933,-888 933,-876 933,-876 933,-870 939,-864 945,-864 945,-864 997,-864 997,-864 1003,-864 1009,-870 1009,-876 1009,-876 1009,-888 1009,-888 1009,-894 1003,-900 997,-900"/>
<text text-anchor="middle" x="971" y="-879.5" font-family="sans" font-size="10.00">gatk_calling</text>
</g>
<!-- 8&#45;&gt;25 -->
<g id="edge65" class="edge">
<title>8&#45;&gt;25</title>
<path fill="none" stroke="grey" stroke-width="2" d="M1352.93,-1516.94C1357.76,-1472.64 1370,-1350.26 1370,-1248 1370,-1248 1370,-1248 1370,-1174 1370,-1131.29 1375.87,-1113.99 1350,-1080 1265.59,-969.08 1100.82,-914.84 1019.2,-893.85"/>
<polygon fill="grey" stroke="grey" stroke-width="2" points="1019.74,-890.37 1009.19,-891.33 1018.04,-897.16 1019.74,-890.37"/>
</g>
<!-- 26 -->
<g id="node27" class="node">
<title>26</title>
<path fill="none" stroke="#78d856" stroke-width="2" d="M589,-972C589,-972 543,-972 543,-972 537,-972 531,-966 531,-960 531,-960 531,-948 531,-948 531,-942 537,-936 543,-936 543,-936 589,-936 589,-936 595,-936 601,-942 601,-948 601,-948 601,-960 601,-960 601,-966 595,-972 589,-972"/>
<text text-anchor="middle" x="566" y="-951.5" font-family="sans" font-size="10.00">apply_bqsr</text>
</g>
<!-- 8&#45;&gt;26 -->
<g id="edge68" class="edge">
<title>8&#45;&gt;26</title>
<path fill="none" stroke="grey" stroke-width="2" d="M1312.47,-1533.58C1107.24,-1530.86 152,-1511.74 152,-1392 152,-1392 152,-1392 152,-1099.5 152,-1044.3 187.39,-1034.16 236,-1008 284.47,-981.92 442.36,-965.38 520.85,-958.57"/>
<polygon fill="grey" stroke="grey" stroke-width="2" points="521.26,-962.05 530.93,-957.71 520.67,-955.08 521.26,-962.05"/>
</g>
<!-- 31 -->
<g id="node32" class="node">
<title>31</title>
<path fill="none" stroke="#d89556" stroke-width="2" d="M539.5,-1481C539.5,-1481 466.5,-1481 466.5,-1481 460.5,-1481 454.5,-1475 454.5,-1469 454.5,-1469 454.5,-1457 454.5,-1457 454.5,-1451 460.5,-1445 466.5,-1445 466.5,-1445 539.5,-1445 539.5,-1445 545.5,-1445 551.5,-1451 551.5,-1457 551.5,-1457 551.5,-1469 551.5,-1469 551.5,-1475 545.5,-1481 539.5,-1481"/>
<text text-anchor="middle" x="503" y="-1460.5" font-family="sans" font-size="10.00">novoalign_index</text>
</g>
<!-- 8&#45;&gt;31 -->
<g id="edge77" class="edge">
<title>8&#45;&gt;31</title>
<path fill="none" stroke="grey" stroke-width="2" d="M1312.35,-1534.44C1198.29,-1535.11 853.33,-1532.53 561.57,-1481.06"/>
<polygon fill="grey" stroke="grey" stroke-width="2" points="562.1,-1477.6 551.64,-1479.29 560.87,-1484.49 562.1,-1477.6"/>
</g>
<!-- 33 -->
<g id="node34" class="node">
<title>33</title>
<path fill="none" stroke="#56d8d8" stroke-width="2" d="M521.5,-1044C521.5,-1044 400.5,-1044 400.5,-1044 394.5,-1044 388.5,-1038 388.5,-1032 388.5,-1032 388.5,-1020 388.5,-1020 388.5,-1014 394.5,-1008 400.5,-1008 400.5,-1008 521.5,-1008 521.5,-1008 527.5,-1008 533.5,-1014 533.5,-1020 533.5,-1020 533.5,-1032 533.5,-1032 533.5,-1038 527.5,-1044 521.5,-1044"/>
<text text-anchor="middle" x="461" y="-1023.5" font-family="sans" font-size="10.00">recalibrate_base_qualities</text>
</g>
<!-- 8&#45;&gt;33 -->
<g id="edge81" class="edge">
<title>8&#45;&gt;33</title>
<path fill="none" stroke="grey" stroke-width="2" d="M1312.49,-1534.44C1148.23,-1535.97 511.57,-1538.16 445,-1481 414.31,-1454.65 426,-1432.45 426,-1392 426,-1392 426,-1392 426,-1174 426,-1131.05 440.31,-1082.92 450.63,-1053.8"/>
<polygon fill="grey" stroke="grey" stroke-width="2" points="453.95,-1054.93 454.09,-1044.33 447.37,-1052.53 453.95,-1054.93"/>
</g>
<!-- 35 -->
<g id="node36" class="node">
<title>35</title>
<path fill="none" stroke="#56d863" stroke-width="2" d="M1362.5,-900C1362.5,-900 1285.5,-900 1285.5,-900 1279.5,-900 1273.5,-894 1273.5,-888 1273.5,-888 1273.5,-876 1273.5,-876 1273.5,-870 1279.5,-864 1285.5,-864 1285.5,-864 1362.5,-864 1362.5,-864 1368.5,-864 1374.5,-870 1374.5,-876 1374.5,-876 1374.5,-888 1374.5,-888 1374.5,-894 1368.5,-900 1362.5,-900"/>
<text text-anchor="middle" x="1324" y="-879.5" font-family="sans" font-size="10.00">bcftools_mpileup</text>
</g>
<!-- 8&#45;&gt;35 -->
<g id="edge88" class="edge">
<title>8&#45;&gt;35</title>
<path fill="none" stroke="grey" stroke-width="2" d="M1389.61,-1529.6C1446.26,-1522.37 1548.01,-1506.22 1574,-1481 1603.4,-1452.47 1598,-1432.97 1598,-1392 1598,-1392 1598,-1392 1598,-1025 1598,-976.79 1575.86,-963.12 1536,-936 1481.18,-898.7 1453.71,-915.74 1384.72,-899.98"/>
<polygon fill="grey" stroke="grey" stroke-width="2" points="1385.24,-896.51 1374.7,-897.53 1383.58,-903.31 1385.24,-896.51"/>
</g>
<!-- 37 -->
<g id="node38" class="node">
<title>37</title>
<path fill="none" stroke="#56d863" stroke-width="2" d="M300.5,-900C300.5,-900 223.5,-900 223.5,-900 217.5,-900 211.5,-894 211.5,-888 211.5,-888 211.5,-876 211.5,-876 211.5,-870 217.5,-864 223.5,-864 223.5,-864 300.5,-864 300.5,-864 306.5,-864 312.5,-870 312.5,-876 312.5,-876 312.5,-888 312.5,-888 312.5,-894 306.5,-900 300.5,-900"/>
<text text-anchor="middle" x="262" y="-879.5" font-family="sans" font-size="10.00">bcftools_mpileup</text>
</g>
<!-- 8&#45;&gt;37 -->
<g id="edge92" class="edge">
<title>8&#45;&gt;37</title>
<path fill="none" stroke="grey" stroke-width="2" d="M1312.34,-1533.43C1102.91,-1530.2 111.7,-1513.27 56,-1481 15.56,-1457.57 0,-1438.73 0,-1392 0,-1392 0,-1392 0,-1025 0,-933.89 123.97,-900.94 201.36,-889.24"/>
<polygon fill="grey" stroke="grey" stroke-width="2" points="202.08,-892.67 211.48,-887.79 201.09,-885.74 202.08,-892.67"/>
</g>
<!-- 39 -->
<g id="node40" class="node">
<title>39</title>
<path fill="none" stroke="#5692d8" stroke-width="2" d="M1499,-900C1499,-900 1405,-900 1405,-900 1399,-900 1393,-894 1393,-888 1393,-888 1393,-876 1393,-876 1393,-870 1399,-864 1405,-864 1405,-864 1499,-864 1499,-864 1505,-864 1511,-870 1511,-876 1511,-876 1511,-888 1511,-888 1511,-894 1505,-900 1499,-900"/>
<text text-anchor="middle" x="1452" y="-879.5" font-family="sans" font-size="10.00">deep_variant_calling</text>
</g>
<!-- 8&#45;&gt;39 -->
<g id="edge96" class="edge">
<title>8&#45;&gt;39</title>
<path fill="none" stroke="grey" stroke-width="2" d="M1389.92,-1530.1C1451.49,-1523.21 1567.6,-1507.11 1599,-1481 1631.94,-1453.61 1636,-1434.84 1636,-1392 1636,-1392 1636,-1392 1636,-1025 1636,-963.43 1570.63,-924.81 1517.82,-903.65"/>
<polygon fill="grey" stroke="grey" stroke-width="2" points="1519.05,-900.38 1508.46,-900.03 1516.52,-906.9 1519.05,-900.38"/>
</g>
<!-- 41 -->
<g id="node42" class="node">
<title>41</title>
<path fill="none" stroke="#5692d8" stroke-width="2" d="M1160,-900C1160,-900 1066,-900 1066,-900 1060,-900 1054,-894 1054,-888 1054,-888 1054,-876 1054,-876 1054,-870 1060,-864 1066,-864 1066,-864 1160,-864 1160,-864 1166,-864 1172,-870 1172,-876 1172,-876 1172,-888 1172,-888 1172,-894 1166,-900 1160,-900"/>
<text text-anchor="middle" x="1113" y="-879.5" font-family="sans" font-size="10.00">deep_variant_calling</text>
</g>
<!-- 8&#45;&gt;41 -->
<g id="edge99" class="edge">
<title>8&#45;&gt;41</title>
<path fill="none" stroke="grey" stroke-width="2" d="M1363.48,-1516.77C1405.9,-1455.94 1538.63,-1246.02 1477,-1080 1446.47,-997.76 1419.02,-978 1342,-936 1280.39,-902.4 1254.59,-915.61 1182.34,-900.18"/>
<polygon fill="grey" stroke="grey" stroke-width="2" points="1182.84,-896.71 1172.32,-897.92 1181.3,-903.54 1182.84,-896.71"/>
</g>
<!-- 42 -->
<g id="node43" class="node">
<title>42</title>
<path fill="none" stroke="#b6d856" stroke-width="2" d="M1243.5,-900C1243.5,-900 1202.5,-900 1202.5,-900 1196.5,-900 1190.5,-894 1190.5,-888 1190.5,-888 1190.5,-876 1190.5,-876 1190.5,-870 1196.5,-864 1202.5,-864 1202.5,-864 1243.5,-864 1243.5,-864 1249.5,-864 1255.5,-870 1255.5,-876 1255.5,-876 1255.5,-888 1255.5,-888 1255.5,-894 1249.5,-900 1243.5,-900"/>
<text text-anchor="middle" x="1223" y="-879.5" font-family="sans" font-size="10.00">freebayes</text>
</g>
<!-- 8&#45;&gt;42 -->
<g id="edge100" class="edge">
<title>8&#45;&gt;42</title>
<path fill="none" stroke="grey" stroke-width="2" d="M1389.82,-1526.14C1450.26,-1511.38 1560,-1473.37 1560,-1392 1560,-1392 1560,-1392 1560,-1174 1560,-1144.14 1510.59,-947.33 1498,-936 1422.15,-867.75 1368.65,-924.68 1265.67,-899.99"/>
<polygon fill="grey" stroke="grey" stroke-width="2" points="1266.44,-896.57 1255.88,-897.43 1264.67,-903.34 1266.44,-896.57"/>
</g>
<!-- 43 -->
<g id="node44" class="node">
<title>43</title>
<path fill="none" stroke="#b6d856" stroke-width="2" d="M594.5,-900C594.5,-900 553.5,-900 553.5,-900 547.5,-900 541.5,-894 541.5,-888 541.5,-888 541.5,-876 541.5,-876 541.5,-870 547.5,-864 553.5,-864 553.5,-864 594.5,-864 594.5,-864 600.5,-864 606.5,-870 606.5,-876 606.5,-876 606.5,-888 606.5,-888 606.5,-894 600.5,-900 594.5,-900"/>
<text text-anchor="middle" x="574" y="-879.5" font-family="sans" font-size="10.00">freebayes</text>
</g>
<!-- 8&#45;&gt;43 -->
<g id="edge103" class="edge">
<title>8&#45;&gt;43</title>
<path fill="none" stroke="grey" stroke-width="2" d="M1312.27,-1533.9C1116.94,-1533.16 244.81,-1527.27 134,-1481 80.31,-1458.58 38,-1450.18 38,-1392 38,-1392 38,-1392 38,-1099.5 38,-1050.38 60.58,-1037.31 100,-1008 234.38,-908.09 442.19,-887.92 531.18,-883.93"/>
<polygon fill="grey" stroke="grey" stroke-width="2" points="531.58,-887.42 541.43,-883.52 531.3,-880.43 531.58,-887.42"/>
</g>
<!-- 44 -->
<g id="node45" class="node">
<title>44</title>
<path fill="none" stroke="#d88556" stroke-width="2" d="M1575,-900C1575,-900 1545,-900 1545,-900 1539,-900 1533,-894 1533,-888 1533,-888 1533,-876 1533,-876 1533,-870 1539,-864 1545,-864 1545,-864 1575,-864 1575,-864 1581,-864 1587,-870 1587,-876 1587,-876 1587,-888 1587,-888 1587,-894 1581,-900 1575,-900"/>
<text text-anchor="middle" x="1560" y="-879.5" font-family="sans" font-size="10.00">delly</text>
</g>
<!-- 8&#45;&gt;44 -->
<g id="edge106" class="edge">
<title>8&#45;&gt;44</title>
<path fill="none" stroke="grey" stroke-width="2" d="M1389.67,-1530.7C1456.46,-1524.33 1589.84,-1508.51 1627,-1481 1662.95,-1454.38 1674,-1436.73 1674,-1392 1674,-1392 1674,-1392 1674,-1025 1674,-974 1628.73,-930.88 1595.24,-905.97"/>
<polygon fill="grey" stroke="grey" stroke-width="2" points="1597.17,-903.05 1587.02,-900.04 1593.08,-908.73 1597.17,-903.05"/>
</g>
<!-- 45 -->
<g id="node46" class="node">
<title>45</title>
<path fill="none" stroke="#d88556" stroke-width="2" d="M669,-900C669,-900 639,-900 639,-900 633,-900 627,-894 627,-888 627,-888 627,-876 627,-876 627,-870 633,-864 639,-864 639,-864 669,-864 669,-864 675,-864 681,-870 681,-876 681,-876 681,-888 681,-888 681,-894 675,-900 669,-900"/>
<text text-anchor="middle" x="654" y="-879.5" font-family="sans" font-size="10.00">delly</text>
</g>
<!-- 8&#45;&gt;45 -->
<g id="edge109" class="edge">
<title>8&#45;&gt;45</title>
<path fill="none" stroke="grey" stroke-width="2" d="M1312.41,-1533.53C1127.23,-1531.1 334.3,-1518.57 231,-1481 169.6,-1458.67 114,-1457.33 114,-1392 114,-1392 114,-1392 114,-1025 114,-998.14 146.06,-1014.96 172,-1008 367.73,-955.49 422.96,-964.73 615,-900 615.86,-899.71 616.72,-899.41 617.59,-899.1"/>
<polygon fill="grey" stroke="grey" stroke-width="2" points="618.88,-902.35 626.96,-895.5 616.37,-895.82 618.88,-902.35"/>
</g>
<!-- 9&#45;&gt;7 -->
<g id="edge24" class="edge">
<title>9&#45;&gt;7</title>
<path fill="none" stroke="grey" stroke-width="2" d="M819.3,-1300.92C806.02,-1291.74 791,-1279.36 781,-1265 757.23,-1230.86 752,-1217.6 752,-1176 752,-1176 752,-1176 752,-1025 752,-948.32 724.59,-932.43 690,-864 681.43,-847.06 672.32,-846.22 667,-828 662.51,-812.64 660.33,-806.54 667,-792 705.12,-708.92 797.49,-647.65 852.56,-617"/>
<polygon fill="grey" stroke="grey" stroke-width="2" points="854.3,-620.04 861.4,-612.17 850.94,-613.9 854.3,-620.04"/>
</g>
<!-- 9&#45;&gt;14 -->
<g id="edge47" class="edge">
<title>9&#45;&gt;14</title>
<path fill="none" stroke="grey" stroke-width="2" d="M891.19,-1313.33C924.34,-1307.5 968.89,-1294.39 996,-1265 1023.78,-1234.89 1020,-1216.97 1020,-1176 1020,-1176 1020,-1176 1020,-1099.5 1020,-1057.1 1015.86,-1036.78 1047,-1008 1076.44,-980.8 1188.55,-965.65 1252.53,-959.05"/>
<polygon fill="grey" stroke="grey" stroke-width="2" points="1253.15,-962.51 1262.75,-958.03 1252.45,-955.54 1253.15,-962.51"/>
</g>
<!-- 9&#45;&gt;20 -->
<g id="edge57" class="edge">
<title>9&#45;&gt;20</title>
<path fill="none" stroke="grey" stroke-width="2" d="M891.2,-1316.31C932.61,-1312.48 994.5,-1300.66 1034,-1265 1066.58,-1235.59 1105.36,-1110.16 1121.44,-1054.18"/>
<polygon fill="grey" stroke="grey" stroke-width="2" points="1124.89,-1054.84 1124.26,-1044.26 1118.16,-1052.92 1124.89,-1054.84"/>
</g>
<!-- 22 -->
<g id="node23" class="node">
<title>22</title>
<path fill="none" stroke="#59d856" stroke-width="2" d="M893.5,-1265C893.5,-1265 802.5,-1265 802.5,-1265 796.5,-1265 790.5,-1259 790.5,-1253 790.5,-1253 790.5,-1241 790.5,-1241 790.5,-1235 796.5,-1229 802.5,-1229 802.5,-1229 893.5,-1229 893.5,-1229 899.5,-1229 905.5,-1235 905.5,-1241 905.5,-1241 905.5,-1253 905.5,-1253 905.5,-1259 899.5,-1265 893.5,-1265"/>
<text text-anchor="middle" x="848" y="-1244.5" font-family="sans" font-size="10.00">get_known_variants</text>
</g>
<!-- 9&#45;&gt;22 -->
<g id="edge61" class="edge">
<title>9&#45;&gt;22</title>
<path fill="none" stroke="grey" stroke-width="2" d="M848,-1300.7C848,-1292.98 848,-1283.71 848,-1275.11"/>
<polygon fill="grey" stroke="grey" stroke-width="2" points="851.5,-1275.1 848,-1265.1 844.5,-1275.1 851.5,-1275.1"/>
</g>
<!-- 9&#45;&gt;26 -->
<g id="edge70" class="edge">
<title>9&#45;&gt;26</title>
<path fill="none" stroke="grey" stroke-width="2" d="M804.78,-1317.65C762.44,-1314.89 699.04,-1303.91 662,-1265 603.8,-1203.86 645.13,-1160.27 619,-1080 607.6,-1044.98 590.37,-1006.14 578.68,-981.19"/>
<polygon fill="grey" stroke="grey" stroke-width="2" points="581.78,-979.57 574.34,-972.03 575.45,-982.57 581.78,-979.57"/>
</g>
<!-- 9&#45;&gt;33 -->
<g id="edge83" class="edge">
<title>9&#45;&gt;33</title>
<path fill="none" stroke="grey" stroke-width="2" d="M804.59,-1314.84C757.49,-1309.85 681.35,-1297.13 624,-1265 545.31,-1220.92 523.91,-1200.34 481,-1121 469.82,-1100.32 464.88,-1073.93 462.71,-1054.38"/>
<polygon fill="grey" stroke="grey" stroke-width="2" points="466.18,-1053.93 461.76,-1044.3 459.21,-1054.58 466.18,-1053.93"/>
</g>
<!-- 9&#45;&gt;35 -->
<g id="edge87" class="edge">
<title>9&#45;&gt;35</title>
<path fill="none" stroke="grey" stroke-width="2" d="M888.78,-1300.82C905.93,-1292.05 925.09,-1280.03 939,-1265 968.84,-1232.76 982,-1219.93 982,-1176 982,-1176 982,-1176 982,-1025 982,-994.89 1165.1,-932.82 1263.36,-901.68"/>
<polygon fill="grey" stroke="grey" stroke-width="2" points="1264.69,-904.93 1273.17,-898.58 1262.58,-898.25 1264.69,-904.93"/>
</g>
<!-- 9&#45;&gt;37 -->
<g id="edge91" class="edge">
<title>9&#45;&gt;37</title>
<path fill="none" stroke="grey" stroke-width="2" d="M804.92,-1316.91C671.13,-1313.19 268.92,-1299.23 222,-1265 96.02,-1173.08 8.46,-1062.26 100,-936 122.92,-904.38 165.26,-891.28 200.91,-886"/>
<polygon fill="grey" stroke="grey" stroke-width="2" points="201.78,-889.42 211.25,-884.66 200.88,-882.48 201.78,-889.42"/>
</g>
<!-- 9&#45;&gt;42 -->
<g id="edge101" class="edge">
<title>9&#45;&gt;42</title>
<path fill="none" stroke="grey" stroke-width="2" d="M876.2,-1300.79C889.27,-1291.59 904.07,-1279.22 914,-1265 937.9,-1230.78 944,-1217.74 944,-1176 944,-1176 944,-1176 944,-1025 944,-984.03 937.67,-963.55 968,-936 1036.71,-873.59 1085.31,-922.66 1180.27,-899.68"/>
<polygon fill="grey" stroke="grey" stroke-width="2" points="1181.45,-902.99 1190.22,-897.05 1179.66,-896.22 1181.45,-902.99"/>
</g>
<!-- 9&#45;&gt;43 -->
<g id="edge104" class="edge">
<title>9&#45;&gt;43</title>
<path fill="none" stroke="grey" stroke-width="2" d="M804.92,-1310.03C776.01,-1302.7 738.83,-1289.17 714,-1265 683.18,-1235 676,-1219.01 676,-1176 676,-1176 676,-1176 676,-1025 676,-975.82 635.14,-932.01 605.15,-906.48"/>
<polygon fill="grey" stroke="grey" stroke-width="2" points="607.34,-903.75 597.4,-900.08 602.88,-909.15 607.34,-903.75"/>
</g>
<!-- 9&#45;&gt;44 -->
<g id="edge107" class="edge">
<title>9&#45;&gt;44</title>
<path fill="none" stroke="grey" stroke-width="2" d="M891.18,-1315.51C978.04,-1308.66 1177.16,-1283.49 1313,-1193 1428.01,-1116.39 1514.58,-969.21 1546.55,-909.32"/>
<polygon fill="grey" stroke="grey" stroke-width="2" points="1549.81,-910.64 1551.38,-900.16 1543.62,-907.37 1549.81,-910.64"/>
</g>
<!-- 9&#45;&gt;45 -->
<g id="edge110" class="edge">
<title>9&#45;&gt;45</title>
<path fill="none" stroke="grey" stroke-width="2" d="M804.91,-1306.78C781.97,-1298.72 755.06,-1285.56 738,-1265 711.84,-1233.47 714,-1216.97 714,-1176 714,-1176 714,-1176 714,-1025 714,-984.03 707.08,-973.24 690,-936 685.66,-926.55 679.69,-916.93 673.86,-908.52"/>
<polygon fill="grey" stroke="grey" stroke-width="2" points="676.59,-906.33 667.9,-900.27 670.91,-910.42 676.59,-906.33"/>
</g>
<!-- 10 -->
<g id="node11" class="node">
<title>10</title>
<path fill="none" stroke="#56d8c1" stroke-width="2" d="M1144,-684C1144,-684 992,-684 992,-684 986,-684 980,-678 980,-672 980,-672 980,-660 980,-660 980,-654 986,-648 992,-648 992,-648 1144,-648 1144,-648 1150,-648 1156,-654 1156,-660 1156,-660 1156,-672 1156,-672 1156,-678 1150,-684 1144,-684"/>
<text text-anchor="middle" x="1068" y="-663.5" font-family="sans" font-size="10.00">norm_merged_candidate_callset</text>
</g>
<!-- 10&#45;&gt;7 -->
<g id="edge25" class="edge">
<title>10&#45;&gt;7</title>
<path fill="none" stroke="grey" stroke-width="2" d="M1025.92,-647.88C1002.2,-638.22 972.38,-626.09 947.3,-615.88"/>
<polygon fill="grey" stroke="grey" stroke-width="2" points="948.52,-612.6 937.94,-612.07 945.88,-619.08 948.52,-612.6"/>
</g>
<!-- 11 -->
<g id="node12" class="node">
<title>11</title>
<path fill="none" stroke="#88d856" stroke-width="2" d="M1192,-756C1192,-756 1054,-756 1054,-756 1048,-756 1042,-750 1042,-744 1042,-744 1042,-732 1042,-732 1042,-726 1048,-720 1054,-720 1054,-720 1192,-720 1192,-720 1198,-720 1204,-726 1204,-732 1204,-732 1204,-744 1204,-744 1204,-750 1198,-756 1192,-756"/>
<text text-anchor="middle" x="1123" y="-735.5" font-family="sans" font-size="10.00">concat_all_candidate_callsets</text>
</g>
<!-- 11&#45;&gt;10 -->
<g id="edge29" class="edge">
<title>11&#45;&gt;10</title>
<path fill="none" stroke="grey" stroke-width="2" d="M1109.4,-719.7C1102.88,-711.39 1094.93,-701.28 1087.75,-692.14"/>
<polygon fill="grey" stroke="grey" stroke-width="2" points="1090.37,-689.81 1081.44,-684.1 1084.87,-694.13 1090.37,-689.81"/>
</g>
<!-- 12 -->
<g id="node13" class="node">
<title>12</title>
<path fill="none" stroke="#d86656" stroke-width="2" d="M1676,-828C1676,-828 1606,-828 1606,-828 1600,-828 1594,-822 1594,-816 1594,-816 1594,-804 1594,-804 1594,-798 1600,-792 1606,-792 1606,-792 1676,-792 1676,-792 1682,-792 1688,-798 1688,-804 1688,-804 1688,-816 1688,-816 1688,-822 1682,-828 1676,-828"/>
<text text-anchor="middle" x="1641" y="-807.5" font-family="sans" font-size="10.00">gatk_vcf_to_bcf</text>
</g>
<!-- 12&#45;&gt;11 -->
<g id="edge30" class="edge">
<title>12&#45;&gt;11</title>
<path fill="none" stroke="grey" stroke-width="2" d="M1593.7,-795.43C1588.43,-794.16 1583.12,-792.98 1578,-792 1453.04,-768 1306.54,-753.3 1214.24,-745.64"/>
<polygon fill="grey" stroke="grey" stroke-width="2" points="1214.35,-742.14 1204.1,-744.81 1213.78,-749.12 1214.35,-742.14"/>
</g>
<!-- 13&#45;&gt;12 -->
<g id="edge40" class="edge">
<title>13&#45;&gt;12</title>
<path fill="none" stroke="grey" stroke-width="2" d="M1642.51,-863.7C1642.29,-855.98 1642.02,-846.71 1641.77,-838.11"/>
<polygon fill="grey" stroke="grey" stroke-width="2" points="1645.27,-838 1641.49,-828.1 1638.28,-838.2 1645.27,-838"/>
</g>
<!-- 14&#45;&gt;13 -->
<g id="edge41" class="edge">
<title>14&#45;&gt;13</title>
<path fill="none" stroke="grey" stroke-width="2" d="M1333.29,-948.71C1387.7,-941.68 1495.37,-926.05 1595.03,-900.01"/>
<polygon fill="grey" stroke="grey" stroke-width="2" points="1596.19,-903.33 1604.95,-897.38 1594.39,-896.56 1596.19,-903.33"/>
</g>
<!-- 14&#45;&gt;35 -->
<g id="edge89" class="edge">
<title>14&#45;&gt;35</title>
<path fill="none" stroke="grey" stroke-width="2" d="M1304.43,-935.7C1307.36,-927.81 1310.89,-918.3 1314.14,-909.55"/>
<polygon fill="grey" stroke="grey" stroke-width="2" points="1317.45,-910.7 1317.65,-900.1 1310.88,-908.26 1317.45,-910.7"/>
</g>
<!-- 14&#45;&gt;39 -->
<g id="edge95" class="edge">
<title>14&#45;&gt;39</title>
<path fill="none" stroke="grey" stroke-width="2" d="M1333.33,-936.94C1354.64,-927.26 1382.04,-914.8 1405.14,-904.3"/>
<polygon fill="grey" stroke="grey" stroke-width="2" points="1406.76,-907.41 1414.41,-900.08 1403.86,-901.04 1406.76,-907.41"/>
</g>
<!-- 14&#45;&gt;42 -->
<g id="edge102" class="edge">
<title>14&#45;&gt;42</title>
<path fill="none" stroke="grey" stroke-width="2" d="M1279.46,-935.7C1270.2,-927.05 1258.84,-916.45 1248.74,-907.03"/>
<polygon fill="grey" stroke="grey" stroke-width="2" points="1251.02,-904.37 1241.33,-900.1 1246.25,-909.49 1251.02,-904.37"/>
</g>
<!-- 14&#45;&gt;44 -->
<g id="edge108" class="edge">
<title>14&#45;&gt;44</title>
<path fill="none" stroke="grey" stroke-width="2" d="M1333.11,-946.51C1377.3,-937.91 1455.26,-921.32 1520,-900 1521.04,-899.66 1522.09,-899.3 1523.14,-898.93"/>
<polygon fill="grey" stroke="grey" stroke-width="2" points="1524.57,-902.13 1532.69,-895.32 1522.1,-895.58 1524.57,-902.13"/>
</g>
<!-- 46 -->
<g id="node47" class="node">
<title>46</title>
<path fill="none" stroke="#bed856" stroke-width="2" d="M902.5,-900C902.5,-900 769.5,-900 769.5,-900 763.5,-900 757.5,-894 757.5,-888 757.5,-888 757.5,-876 757.5,-876 757.5,-870 763.5,-864 769.5,-864 769.5,-864 902.5,-864 902.5,-864 908.5,-864 914.5,-870 914.5,-876 914.5,-876 914.5,-888 914.5,-888 914.5,-894 908.5,-900 902.5,-900"/>
<text text-anchor="middle" x="836" y="-879.5" font-family="sans" font-size="10.00">samtools_merge_final_bams</text>
</g>
<!-- 14&#45;&gt;46 -->
<g id="edge112" class="edge">
<title>14&#45;&gt;46</title>
<path fill="none" stroke="grey" stroke-width="2" d="M1262.85,-948.62C1198.15,-940.42 1055.66,-921.76 924.85,-900.09"/>
<polygon fill="grey" stroke="grey" stroke-width="2" points="925.09,-896.59 914.65,-898.4 923.94,-903.49 925.09,-896.59"/>
</g>
<!-- 15 -->
<g id="node16" class="node">
<title>15</title>
<path fill="none" stroke="#56d8c9" stroke-width="2" d="M1292,-1193C1292,-1193 1218,-1193 1218,-1193 1212,-1193 1206,-1187 1206,-1181 1206,-1181 1206,-1169 1206,-1169 1206,-1163 1212,-1157 1218,-1157 1218,-1157 1292,-1157 1292,-1157 1298,-1157 1304,-1163 1304,-1169 1304,-1169 1304,-1181 1304,-1181 1304,-1187 1298,-1193 1292,-1193"/>
<text text-anchor="middle" x="1255" y="-1178" font-family="sans" font-size="10.00">mark_duplicates</text>
<text text-anchor="middle" x="1255" y="-1167" font-family="sans" font-size="10.00">aligner: bwa</text>
</g>
<!-- 15&#45;&gt;14 -->
<g id="edge43" class="edge">
<title>15&#45;&gt;14</title>
<path fill="none" stroke="grey" stroke-width="2" d="M1304.18,-1158.52C1321.83,-1150.32 1339.86,-1138.26 1350,-1121 1376.81,-1075.34 1342.51,-1014.36 1318.22,-980.46"/>
<polygon fill="grey" stroke="grey" stroke-width="2" points="1320.76,-978.01 1312,-972.05 1315.14,-982.17 1320.76,-978.01"/>
</g>
<!-- 18 -->
<g id="node19" class="node">
<title>18</title>
<path fill="none" stroke="#56d882" stroke-width="2" d="M1329.5,-1118.5C1329.5,-1118.5 1212.5,-1118.5 1212.5,-1118.5 1206.5,-1118.5 1200.5,-1112.5 1200.5,-1106.5 1200.5,-1106.5 1200.5,-1094.5 1200.5,-1094.5 1200.5,-1088.5 1206.5,-1082.5 1212.5,-1082.5 1212.5,-1082.5 1329.5,-1082.5 1329.5,-1082.5 1335.5,-1082.5 1341.5,-1088.5 1341.5,-1094.5 1341.5,-1094.5 1341.5,-1106.5 1341.5,-1106.5 1341.5,-1112.5 1335.5,-1118.5 1329.5,-1118.5"/>
<text text-anchor="middle" x="1271" y="-1098" font-family="sans" font-size="10.00">mark_duplicates_indexes</text>
</g>
<!-- 15&#45;&gt;18 -->
<g id="edge51" class="edge">
<title>15&#45;&gt;18</title>
<path fill="none" stroke="grey" stroke-width="2" d="M1258.79,-1156.82C1260.66,-1148.33 1262.97,-1137.89 1265.07,-1128.38"/>
<polygon fill="grey" stroke="grey" stroke-width="2" points="1268.5,-1129.08 1267.24,-1118.56 1261.66,-1127.57 1268.5,-1129.08"/>
</g>
<!-- 15&#45;&gt;20 -->
<g id="edge53" class="edge">
<title>15&#45;&gt;20</title>
<path fill="none" stroke="grey" stroke-width="2" d="M1231.03,-1156.88C1218.33,-1147.17 1202.94,-1134.32 1191,-1121 1172.07,-1099.89 1154.69,-1072.53 1143.18,-1052.78"/>
<polygon fill="grey" stroke="grey" stroke-width="2" points="1146.17,-1050.96 1138.17,-1044.02 1140.1,-1054.44 1146.17,-1050.96"/>
</g>
<!-- 16 -->
<g id="node17" class="node">
<title>16</title>
<path fill="none" stroke="#56d86b" stroke-width="2" d="M1107,-1409C1107,-1409 1035,-1409 1035,-1409 1029,-1409 1023,-1403 1023,-1397 1023,-1397 1023,-1385 1023,-1385 1023,-1379 1029,-1373 1035,-1373 1035,-1373 1107,-1373 1107,-1373 1113,-1373 1119,-1379 1119,-1385 1119,-1385 1119,-1397 1119,-1397 1119,-1403 1113,-1409 1107,-1409"/>
<text text-anchor="middle" x="1071" y="-1388.5" font-family="sans" font-size="10.00">map_reads_bwa</text>
</g>
<!-- 16&#45;&gt;15 -->
<g id="edge49" class="edge">
<title>16&#45;&gt;15</title>
<path fill="none" stroke="grey" stroke-width="2" d="M1085.75,-1372.85C1118.18,-1335.13 1195.82,-1244.83 1233.61,-1200.88"/>
<polygon fill="grey" stroke="grey" stroke-width="2" points="1236.32,-1203.1 1240.18,-1193.23 1231.01,-1198.53 1236.32,-1203.1"/>
</g>
<!-- 17 -->
<g id="node18" class="node">
<title>17</title>
<path fill="none" stroke="#56d8a9" stroke-width="2" d="M652.5,-1481C652.5,-1481 581.5,-1481 581.5,-1481 575.5,-1481 569.5,-1475 569.5,-1469 569.5,-1469 569.5,-1457 569.5,-1457 569.5,-1451 575.5,-1445 581.5,-1445 581.5,-1445 652.5,-1445 652.5,-1445 658.5,-1445 664.5,-1451 664.5,-1457 664.5,-1457 664.5,-1469 664.5,-1469 664.5,-1475 658.5,-1481 652.5,-1481"/>
<text text-anchor="middle" x="617" y="-1466" font-family="sans" font-size="10.00">cutadapt_pe</text>
<text text-anchor="middle" x="617" y="-1455" font-family="sans" font-size="10.00">sample: 118711</text>
</g>
<!-- 17&#45;&gt;16 -->
<g id="edge50" class="edge">
<title>17&#45;&gt;16</title>
<path fill="none" stroke="grey" stroke-width="2" d="M664.73,-1454.64C748.58,-1441.71 922.02,-1414.97 1012.77,-1400.98"/>
<polygon fill="grey" stroke="grey" stroke-width="2" points="1013.54,-1404.4 1022.89,-1399.42 1012.47,-1397.48 1013.54,-1404.4"/>
</g>
<!-- 30 -->
<g id="node31" class="node">
<title>30</title>
<path fill="none" stroke="#567bd8" stroke-width="2" d="M566,-1409C566,-1409 466,-1409 466,-1409 460,-1409 454,-1403 454,-1397 454,-1397 454,-1385 454,-1385 454,-1379 460,-1373 466,-1373 466,-1373 566,-1373 566,-1373 572,-1373 578,-1379 578,-1385 578,-1385 578,-1397 578,-1397 578,-1403 572,-1409 566,-1409"/>
<text text-anchor="middle" x="516" y="-1388.5" font-family="sans" font-size="10.00">map_reads_novoalign</text>
</g>
<!-- 17&#45;&gt;30 -->
<g id="edge75" class="edge">
<title>17&#45;&gt;30</title>
<path fill="none" stroke="grey" stroke-width="2" d="M592.29,-1444.88C579.33,-1435.89 563.27,-1424.76 549.23,-1415.03"/>
<polygon fill="grey" stroke="grey" stroke-width="2" points="551.02,-1412.01 540.8,-1409.19 547.03,-1417.76 551.02,-1412.01"/>
</g>
<!-- 18&#45;&gt;14 -->
<g id="edge44" class="edge">
<title>18&#45;&gt;14</title>
<path fill="none" stroke="grey" stroke-width="2" d="M1274.2,-1082.36C1278.83,-1057.59 1287.43,-1011.55 1292.93,-982.13"/>
<polygon fill="grey" stroke="grey" stroke-width="2" points="1296.4,-982.59 1294.8,-972.12 1289.52,-981.31 1296.4,-982.59"/>
</g>
<!-- 18&#45;&gt;20 -->
<g id="edge54" class="edge">
<title>18&#45;&gt;20</title>
<path fill="none" stroke="grey" stroke-width="2" d="M1237.35,-1082.32C1217.63,-1072.25 1192.54,-1059.44 1171.47,-1048.68"/>
<polygon fill="grey" stroke="grey" stroke-width="2" points="1172.91,-1045.49 1162.41,-1044.06 1169.73,-1051.72 1172.91,-1045.49"/>
</g>
<!-- 19&#45;&gt;14 -->
<g id="edge46" class="edge">
<title>19&#45;&gt;14</title>
<path fill="none" stroke="grey" stroke-width="2" d="M610.2,-1090.68C686.98,-1073.92 859.88,-1036.59 1006,-1008 1093.11,-990.96 1195.22,-972.85 1252.69,-962.83"/>
<polygon fill="grey" stroke="grey" stroke-width="2" points="1253.63,-966.22 1262.88,-961.05 1252.43,-959.32 1253.63,-966.22"/>
</g>
<!-- 19&#45;&gt;20 -->
<g id="edge56" class="edge">
<title>19&#45;&gt;20</title>
<path fill="none" stroke="grey" stroke-width="2" d="M610.2,-1094.29C701.15,-1082.49 924.22,-1053.56 1046.14,-1037.75"/>
<polygon fill="grey" stroke="grey" stroke-width="2" points="1046.71,-1041.2 1056.18,-1036.44 1045.81,-1034.26 1046.71,-1041.2"/>
</g>
<!-- 19&#45;&gt;26 -->
<g id="edge69" class="edge">
<title>19&#45;&gt;26</title>
<path fill="none" stroke="grey" stroke-width="2" d="M569.53,-1082.36C568.84,-1057.59 567.57,-1011.55 566.75,-982.13"/>
<polygon fill="grey" stroke="grey" stroke-width="2" points="570.25,-982.02 566.47,-972.12 563.25,-982.21 570.25,-982.02"/>
</g>
<!-- 19&#45;&gt;33 -->
<g id="edge82" class="edge">
<title>19&#45;&gt;33</title>
<path fill="none" stroke="grey" stroke-width="2" d="M544.17,-1082.32C529.51,-1072.57 510.98,-1060.24 495.13,-1049.7"/>
<polygon fill="grey" stroke="grey" stroke-width="2" points="496.91,-1046.68 486.65,-1044.06 493.03,-1052.51 496.91,-1046.68"/>
</g>
<!-- 20&#45;&gt;14 -->
<g id="edge48" class="edge">
<title>20&#45;&gt;14</title>
<path fill="none" stroke="grey" stroke-width="2" d="M1170.34,-1007.88C1195.47,-997.47 1227.56,-984.18 1253.28,-973.52"/>
<polygon fill="grey" stroke="grey" stroke-width="2" points="1254.9,-976.64 1262.8,-969.58 1252.22,-970.17 1254.9,-976.64"/>
</g>
<!-- 21 -->
<g id="node22" class="node">
<title>21</title>
<path fill="none" stroke="#569ad8" stroke-width="2" d="M895.5,-1193C895.5,-1193 800.5,-1193 800.5,-1193 794.5,-1193 788.5,-1187 788.5,-1181 788.5,-1181 788.5,-1169 788.5,-1169 788.5,-1163 794.5,-1157 800.5,-1157 800.5,-1157 895.5,-1157 895.5,-1157 901.5,-1157 907.5,-1163 907.5,-1169 907.5,-1169 907.5,-1181 907.5,-1181 907.5,-1187 901.5,-1193 895.5,-1193"/>
<text text-anchor="middle" x="848" y="-1172.5" font-family="sans" font-size="10.00">remove_iupac_codes</text>
</g>
<!-- 21&#45;&gt;20 -->
<g id="edge58" class="edge">
<title>21&#45;&gt;20</title>
<path fill="none" stroke="grey" stroke-width="2" d="M880.51,-1156.99C931.69,-1130.22 1031.02,-1078.26 1087.36,-1048.78"/>
<polygon fill="grey" stroke="grey" stroke-width="2" points="1089.11,-1051.82 1096.35,-1044.08 1085.87,-1045.61 1089.11,-1051.82"/>
</g>
<!-- 23 -->
<g id="node24" class="node">
<title>23</title>
<path fill="none" stroke="#56d892" stroke-width="2" d="M903.5,-1121C903.5,-1121 792.5,-1121 792.5,-1121 786.5,-1121 780.5,-1115 780.5,-1109 780.5,-1109 780.5,-1092 780.5,-1092 780.5,-1086 786.5,-1080 792.5,-1080 792.5,-1080 903.5,-1080 903.5,-1080 909.5,-1080 915.5,-1086 915.5,-1092 915.5,-1092 915.5,-1109 915.5,-1109 915.5,-1115 909.5,-1121 903.5,-1121"/>
<text text-anchor="middle" x="848" y="-1109" font-family="sans" font-size="10.00">tabix_known_variants</text>
<text text-anchor="middle" x="848" y="-1098" font-family="sans" font-size="10.00">format: vcf</text>
<text text-anchor="middle" x="848" y="-1087" font-family="sans" font-size="10.00">prefix: variation.noiupac</text>
</g>
<!-- 21&#45;&gt;23 -->
<g id="edge62" class="edge">
<title>21&#45;&gt;23</title>
<path fill="none" stroke="grey" stroke-width="2" d="M848,-1156.82C848,-1149.2 848,-1140 848,-1131.32"/>
<polygon fill="grey" stroke="grey" stroke-width="2" points="851.5,-1131.12 848,-1121.12 844.5,-1131.12 851.5,-1131.12"/>
</g>
<!-- 21&#45;&gt;33 -->
<g id="edge84" class="edge">
<title>21&#45;&gt;33</title>
<path fill="none" stroke="grey" stroke-width="2" d="M788.37,-1170.15C706.35,-1163.88 563.95,-1149.24 521,-1121 496.59,-1104.95 480.11,-1075.16 470.69,-1053.41"/>
<polygon fill="grey" stroke="grey" stroke-width="2" points="473.89,-1051.98 466.86,-1044.06 467.42,-1054.64 473.89,-1051.98"/>
</g>
<!-- 22&#45;&gt;21 -->
<g id="edge60" class="edge">
<title>22&#45;&gt;21</title>
<path fill="none" stroke="grey" stroke-width="2" d="M848,-1228.7C848,-1220.98 848,-1211.71 848,-1203.11"/>
<polygon fill="grey" stroke="grey" stroke-width="2" points="851.5,-1203.1 848,-1193.1 844.5,-1203.1 851.5,-1203.1"/>
</g>
<!-- 23&#45;&gt;20 -->
<g id="edge59" class="edge">
<title>23&#45;&gt;20</title>
<path fill="none" stroke="grey" stroke-width="2" d="M915.66,-1082.04C957.1,-1071.35 1010.21,-1057.65 1053.07,-1046.59"/>
<polygon fill="grey" stroke="grey" stroke-width="2" points="1054.08,-1049.94 1062.89,-1044.06 1052.34,-1043.17 1054.08,-1049.94"/>
</g>
<!-- 23&#45;&gt;33 -->
<g id="edge85" class="edge">
<title>23&#45;&gt;33</title>
<path fill="none" stroke="grey" stroke-width="2" d="M780.15,-1086.79C714.34,-1074.46 614.37,-1055.73 543.89,-1042.53"/>
<polygon fill="grey" stroke="grey" stroke-width="2" points="544.19,-1039.02 533.71,-1040.62 542.9,-1045.9 544.19,-1039.02"/>
</g>
<!-- 24 -->
<g id="node25" class="node">
<title>24</title>
<path fill="none" stroke="#d86656" stroke-width="2" d="M1006,-828C1006,-828 936,-828 936,-828 930,-828 924,-822 924,-816 924,-816 924,-804 924,-804 924,-798 930,-792 936,-792 936,-792 1006,-792 1006,-792 1012,-792 1018,-798 1018,-804 1018,-804 1018,-816 1018,-816 1018,-822 1012,-828 1006,-828"/>
<text text-anchor="middle" x="971" y="-807.5" font-family="sans" font-size="10.00">gatk_vcf_to_bcf</text>
</g>
<!-- 24&#45;&gt;11 -->
<g id="edge31" class="edge">
<title>24&#45;&gt;11</title>
<path fill="none" stroke="grey" stroke-width="2" d="M1008.18,-791.88C1028.87,-782.35 1054.8,-770.41 1076.78,-760.28"/>
<polygon fill="grey" stroke="grey" stroke-width="2" points="1078.32,-763.43 1085.94,-756.07 1075.39,-757.07 1078.32,-763.43"/>
</g>
<!-- 25&#45;&gt;24 -->
<g id="edge63" class="edge">
<title>25&#45;&gt;24</title>
<path fill="none" stroke="grey" stroke-width="2" d="M971,-863.7C971,-855.98 971,-846.71 971,-838.11"/>
<polygon fill="grey" stroke="grey" stroke-width="2" points="974.5,-838.1 971,-828.1 967.5,-838.1 974.5,-838.1"/>
</g>
<!-- 26&#45;&gt;25 -->
<g id="edge64" class="edge">
<title>26&#45;&gt;25</title>
<path fill="none" stroke="grey" stroke-width="2" d="M601.15,-950.05C665.67,-944.14 807.02,-928.86 923,-900 923.1,-899.97 923.2,-899.95 923.31,-899.92"/>
<polygon fill="grey" stroke="grey" stroke-width="2" points="924.27,-903.29 932.95,-897.22 922.38,-896.55 924.27,-903.29"/>
</g>
<!-- 26&#45;&gt;37 -->
<g id="edge93" class="edge">
<title>26&#45;&gt;37</title>
<path fill="none" stroke="grey" stroke-width="2" d="M530.83,-944.9C479.97,-933.19 385.18,-911.36 322.84,-897.01"/>
<polygon fill="grey" stroke="grey" stroke-width="2" points="323.27,-893.52 312.74,-894.68 321.7,-900.34 323.27,-893.52"/>
</g>
<!-- 26&#45;&gt;41 -->
<g id="edge98" class="edge">
<title>26&#45;&gt;41</title>
<path fill="none" stroke="grey" stroke-width="2" d="M601.26,-949.6C677.49,-942.08 863.25,-922.9 1018,-900 1026.34,-898.77 1035.07,-897.36 1043.72,-895.9"/>
<polygon fill="grey" stroke="grey" stroke-width="2" points="1044.54,-899.31 1053.8,-894.16 1043.35,-892.41 1044.54,-899.31"/>
</g>
<!-- 26&#45;&gt;43 -->
<g id="edge105" class="edge">
<title>26&#45;&gt;43</title>
<path fill="none" stroke="grey" stroke-width="2" d="M567.98,-935.7C568.86,-927.98 569.92,-918.71 570.9,-910.11"/>
<polygon fill="grey" stroke="grey" stroke-width="2" points="574.39,-910.44 572.05,-900.1 567.43,-909.64 574.39,-910.44"/>
</g>
<!-- 26&#45;&gt;45 -->
<g id="edge111" class="edge">
<title>26&#45;&gt;45</title>
<path fill="none" stroke="grey" stroke-width="2" d="M587.75,-935.7C598.84,-926.88 612.47,-916.03 624.49,-906.47"/>
<polygon fill="grey" stroke="grey" stroke-width="2" points="626.85,-909.07 632.5,-900.1 622.49,-903.59 626.85,-909.07"/>
</g>
<!-- 26&#45;&gt;46 -->
<g id="edge113" class="edge">
<title>26&#45;&gt;46</title>
<path fill="none" stroke="grey" stroke-width="2" d="M601.02,-943.92C641.17,-933.51 708.15,-916.15 760.35,-902.61"/>
<polygon fill="grey" stroke="grey" stroke-width="2" points="761.45,-905.94 770.25,-900.05 759.69,-899.17 761.45,-905.94"/>
</g>
<!-- 27 -->
<g id="node28" class="node">
<title>27</title>
<path fill="none" stroke="#56d8c9" stroke-width="2" d="M339,-1193C339,-1193 259,-1193 259,-1193 253,-1193 247,-1187 247,-1181 247,-1181 247,-1169 247,-1169 247,-1163 253,-1157 259,-1157 259,-1157 339,-1157 339,-1157 345,-1157 351,-1163 351,-1169 351,-1169 351,-1181 351,-1181 351,-1187 345,-1193 339,-1193"/>
<text text-anchor="middle" x="299" y="-1178" font-family="sans" font-size="10.00">mark_duplicates</text>
<text text-anchor="middle" x="299" y="-1167" font-family="sans" font-size="10.00">aligner: novoalign</text>
</g>
<!-- 27&#45;&gt;26 -->
<g id="edge66" class="edge">
<title>27&#45;&gt;26</title>
<path fill="none" stroke="grey" stroke-width="2" d="M250.44,-1156.97C234.33,-1148.73 218.18,-1137.06 209,-1121 199.96,-1105.18 199.94,-1095.81 209,-1080 240.51,-1025.05 273.09,-1031.27 332,-1008 395.16,-983.05 472.78,-968.38 520.83,-961.02"/>
<polygon fill="grey" stroke="grey" stroke-width="2" points="521.53,-964.46 530.91,-959.52 520.5,-957.53 521.53,-964.46"/>
</g>
<!-- 32 -->
<g id="node33" class="node">
<title>32</title>
<path fill="none" stroke="#56d882" stroke-width="2" d="M347.5,-1118.5C347.5,-1118.5 230.5,-1118.5 230.5,-1118.5 224.5,-1118.5 218.5,-1112.5 218.5,-1106.5 218.5,-1106.5 218.5,-1094.5 218.5,-1094.5 218.5,-1088.5 224.5,-1082.5 230.5,-1082.5 230.5,-1082.5 347.5,-1082.5 347.5,-1082.5 353.5,-1082.5 359.5,-1088.5 359.5,-1094.5 359.5,-1094.5 359.5,-1106.5 359.5,-1106.5 359.5,-1112.5 353.5,-1118.5 347.5,-1118.5"/>
<text text-anchor="middle" x="289" y="-1098" font-family="sans" font-size="10.00">mark_duplicates_indexes</text>
</g>
<!-- 27&#45;&gt;32 -->
<g id="edge78" class="edge">
<title>27&#45;&gt;32</title>
<path fill="none" stroke="grey" stroke-width="2" d="M296.63,-1156.82C295.47,-1148.42 294.05,-1138.12 292.75,-1128.69"/>
<polygon fill="grey" stroke="grey" stroke-width="2" points="296.19,-1127.99 291.35,-1118.56 289.25,-1128.94 296.19,-1127.99"/>
</g>
<!-- 27&#45;&gt;33 -->
<g id="edge79" class="edge">
<title>27&#45;&gt;33</title>
<path fill="none" stroke="grey" stroke-width="2" d="M322.95,-1156.86C336.52,-1146.83 353.61,-1133.69 368,-1121 393.23,-1098.74 420.05,-1071.17 438.37,-1051.65"/>
<polygon fill="grey" stroke="grey" stroke-width="2" points="440.93,-1054.04 445.19,-1044.34 435.81,-1049.26 440.93,-1054.04"/>
</g>
<!-- 28 -->
<g id="node29" class="node">
<title>28</title>
<path fill="none" stroke="#5663d8" stroke-width="2" d="M372.5,-1265C372.5,-1265 243.5,-1265 243.5,-1265 237.5,-1265 231.5,-1259 231.5,-1253 231.5,-1253 231.5,-1241 231.5,-1241 231.5,-1235 237.5,-1229 243.5,-1229 243.5,-1229 372.5,-1229 372.5,-1229 378.5,-1229 384.5,-1235 384.5,-1241 384.5,-1241 384.5,-1253 384.5,-1253 384.5,-1259 378.5,-1265 372.5,-1265"/>
<text text-anchor="middle" x="308" y="-1244.5" font-family="sans" font-size="10.00">novoalign_add_read_groups</text>
</g>
<!-- 28&#45;&gt;27 -->
<g id="edge72" class="edge">
<title>28&#45;&gt;27</title>
<path fill="none" stroke="grey" stroke-width="2" d="M305.78,-1228.7C304.78,-1220.98 303.59,-1211.71 302.49,-1203.11"/>
<polygon fill="grey" stroke="grey" stroke-width="2" points="305.95,-1202.58 301.2,-1193.1 299,-1203.47 305.95,-1202.58"/>
</g>
<!-- 29 -->
<g id="node30" class="node">
<title>29</title>
<path fill="none" stroke="#56c9d8" stroke-width="2" d="M376,-1337C376,-1337 258,-1337 258,-1337 252,-1337 246,-1331 246,-1325 246,-1325 246,-1313 246,-1313 246,-1307 252,-1301 258,-1301 258,-1301 376,-1301 376,-1301 382,-1301 388,-1307 388,-1313 388,-1313 388,-1325 388,-1325 388,-1331 382,-1337 376,-1337"/>
<text text-anchor="middle" x="317" y="-1316.5" font-family="sans" font-size="10.00">novoalign_sam_sort_bam</text>
</g>
<!-- 29&#45;&gt;28 -->
<g id="edge73" class="edge">
<title>29&#45;&gt;28</title>
<path fill="none" stroke="grey" stroke-width="2" d="M314.78,-1300.7C313.78,-1292.98 312.59,-1283.71 311.49,-1275.11"/>
<polygon fill="grey" stroke="grey" stroke-width="2" points="314.95,-1274.58 310.2,-1265.1 308,-1275.47 314.95,-1274.58"/>
</g>
<!-- 30&#45;&gt;29 -->
<g id="edge74" class="edge">
<title>30&#45;&gt;29</title>
<path fill="none" stroke="grey" stroke-width="2" d="M467.57,-1372.97C439.77,-1363.19 404.66,-1350.84 375.35,-1340.52"/>
<polygon fill="grey" stroke="grey" stroke-width="2" points="376.24,-1337.13 365.64,-1337.11 373.92,-1343.73 376.24,-1337.13"/>
</g>
<!-- 31&#45;&gt;30 -->
<g id="edge76" class="edge">
<title>31&#45;&gt;30</title>
<path fill="none" stroke="grey" stroke-width="2" d="M506.21,-1444.7C507.65,-1436.98 509.37,-1427.71 510.96,-1419.11"/>
<polygon fill="grey" stroke="grey" stroke-width="2" points="514.44,-1419.58 512.82,-1409.1 507.56,-1418.3 514.44,-1419.58"/>
</g>
<!-- 32&#45;&gt;26 -->
<g id="edge67" class="edge">
<title>32&#45;&gt;26</title>
<path fill="none" stroke="grey" stroke-width="2" d="M301.34,-1082.36C317.08,-1061.72 346.22,-1027.42 379,-1008 423.33,-981.73 481.31,-967.94 520.89,-961.09"/>
<polygon fill="grey" stroke="grey" stroke-width="2" points="521.49,-964.54 530.78,-959.46 520.35,-957.64 521.49,-964.54"/>
</g>
<!-- 32&#45;&gt;33 -->
<g id="edge80" class="edge">
<title>32&#45;&gt;33</title>
<path fill="none" stroke="grey" stroke-width="2" d="M329.76,-1082.32C354.18,-1072.03 385.4,-1058.87 411.27,-1047.96"/>
<polygon fill="grey" stroke="grey" stroke-width="2" points="412.68,-1051.17 420.53,-1044.06 409.96,-1044.72 412.68,-1051.17"/>
</g>
<!-- 33&#45;&gt;26 -->
<g id="edge71" class="edge">
<title>33&#45;&gt;26</title>
<path fill="none" stroke="grey" stroke-width="2" d="M486.69,-1007.88C500.29,-998.81 517.17,-987.55 531.86,-977.76"/>
<polygon fill="grey" stroke="grey" stroke-width="2" points="533.84,-980.65 540.22,-972.19 529.95,-974.82 533.84,-980.65"/>
</g>
<!-- 34 -->
<g id="node35" class="node">
<title>34</title>
<path fill="none" stroke="#56d89a" stroke-width="2" d="M1332,-828C1332,-828 1278,-828 1278,-828 1272,-828 1266,-822 1266,-816 1266,-816 1266,-804 1266,-804 1266,-798 1272,-792 1278,-792 1278,-792 1332,-792 1332,-792 1338,-792 1344,-798 1344,-804 1344,-804 1344,-816 1344,-816 1344,-822 1338,-828 1332,-828"/>
<text text-anchor="middle" x="1305" y="-807.5" font-family="sans" font-size="10.00">bcftools_call</text>
</g>
<!-- 34&#45;&gt;11 -->
<g id="edge32" class="edge">
<title>34&#45;&gt;11</title>
<path fill="none" stroke="grey" stroke-width="2" d="M1265.96,-793.98C1239.96,-783.99 1205.46,-770.72 1176.87,-759.72"/>
<polygon fill="grey" stroke="grey" stroke-width="2" points="1178.01,-756.41 1167.42,-756.08 1175.49,-762.94 1178.01,-756.41"/>
</g>
<!-- 35&#45;&gt;34 -->
<g id="edge86" class="edge">
<title>35&#45;&gt;34</title>
<path fill="none" stroke="grey" stroke-width="2" d="M1319.3,-863.7C1317.19,-855.9 1314.64,-846.51 1312.28,-837.83"/>
<polygon fill="grey" stroke="grey" stroke-width="2" points="1315.64,-836.84 1309.64,-828.1 1308.88,-838.67 1315.64,-836.84"/>
</g>
<!-- 36 -->
<g id="node37" class="node">
<title>36</title>
<path fill="none" stroke="#56d89a" stroke-width="2" d="M742,-828C742,-828 688,-828 688,-828 682,-828 676,-822 676,-816 676,-816 676,-804 676,-804 676,-798 682,-792 688,-792 688,-792 742,-792 742,-792 748,-792 754,-798 754,-804 754,-804 754,-816 754,-816 754,-822 748,-828 742,-828"/>
<text text-anchor="middle" x="715" y="-807.5" font-family="sans" font-size="10.00">bcftools_call</text>
</g>
<!-- 36&#45;&gt;11 -->
<g id="edge33" class="edge">
<title>36&#45;&gt;11</title>
<path fill="none" stroke="grey" stroke-width="2" d="M754.16,-795.66C758.8,-794.31 763.48,-793.05 768,-792 856.68,-771.3 959.78,-756.97 1031.96,-748.47"/>
<polygon fill="grey" stroke="grey" stroke-width="2" points="1032.4,-751.94 1041.93,-747.31 1031.59,-744.99 1032.4,-751.94"/>
</g>
<!-- 37&#45;&gt;36 -->
<g id="edge90" class="edge">
<title>37&#45;&gt;36</title>
<path fill="none" stroke="grey" stroke-width="2" d="M312.65,-873.17C400.28,-859.63 579.11,-832 665.76,-818.61"/>
<polygon fill="grey" stroke="grey" stroke-width="2" points="666.51,-822.03 675.86,-817.05 665.44,-815.12 666.51,-822.03"/>
</g>
<!-- 38 -->
<g id="node39" class="node">
<title>38</title>
<path fill="none" stroke="#d86e56" stroke-width="2" d="M1523.5,-828C1523.5,-828 1374.5,-828 1374.5,-828 1368.5,-828 1362.5,-822 1362.5,-816 1362.5,-816 1362.5,-804 1362.5,-804 1362.5,-798 1368.5,-792 1374.5,-792 1374.5,-792 1523.5,-792 1523.5,-792 1529.5,-792 1535.5,-798 1535.5,-804 1535.5,-804 1535.5,-816 1535.5,-816 1535.5,-822 1529.5,-828 1523.5,-828"/>
<text text-anchor="middle" x="1449" y="-807.5" font-family="sans" font-size="10.00">deep_variant_bcftools_reheader</text>
</g>
<!-- 38&#45;&gt;11 -->
<g id="edge34" class="edge">
<title>38&#45;&gt;11</title>
<path fill="none" stroke="grey" stroke-width="2" d="M1369.67,-791.97C1322.15,-781.76 1261.61,-768.76 1212.41,-758.2"/>
<polygon fill="grey" stroke="grey" stroke-width="2" points="1212.92,-754.73 1202.4,-756.05 1211.45,-761.57 1212.92,-754.73"/>
</g>
<!-- 39&#45;&gt;38 -->
<g id="edge94" class="edge">
<title>39&#45;&gt;38</title>
<path fill="none" stroke="grey" stroke-width="2" d="M1451.26,-863.7C1450.93,-855.98 1450.53,-846.71 1450.16,-838.11"/>
<polygon fill="grey" stroke="grey" stroke-width="2" points="1453.66,-837.95 1449.73,-828.1 1446.66,-838.25 1453.66,-837.95"/>
</g>
<!-- 40 -->
<g id="node41" class="node">
<title>40</title>
<path fill="none" stroke="#d86e56" stroke-width="2" d="M1197.5,-828C1197.5,-828 1048.5,-828 1048.5,-828 1042.5,-828 1036.5,-822 1036.5,-816 1036.5,-816 1036.5,-804 1036.5,-804 1036.5,-798 1042.5,-792 1048.5,-792 1048.5,-792 1197.5,-792 1197.5,-792 1203.5,-792 1209.5,-798 1209.5,-804 1209.5,-804 1209.5,-816 1209.5,-816 1209.5,-822 1203.5,-828 1197.5,-828"/>
<text text-anchor="middle" x="1123" y="-807.5" font-family="sans" font-size="10.00">deep_variant_bcftools_reheader</text>
</g>
<!-- 40&#45;&gt;11 -->
<g id="edge35" class="edge">
<title>40&#45;&gt;11</title>
<path fill="none" stroke="grey" stroke-width="2" d="M1123,-791.7C1123,-783.98 1123,-774.71 1123,-766.11"/>
<polygon fill="grey" stroke="grey" stroke-width="2" points="1126.5,-766.1 1123,-756.1 1119.5,-766.1 1126.5,-766.1"/>
</g>
<!-- 41&#45;&gt;40 -->
<g id="edge97" class="edge">
<title>41&#45;&gt;40</title>
<path fill="none" stroke="grey" stroke-width="2" d="M1115.47,-863.7C1116.57,-855.98 1117.9,-846.71 1119.13,-838.11"/>
<polygon fill="grey" stroke="grey" stroke-width="2" points="1122.61,-838.5 1120.56,-828.1 1115.68,-837.51 1122.61,-838.5"/>
</g>
<!-- 42&#45;&gt;11 -->
<g id="edge36" class="edge">
<title>42&#45;&gt;11</title>
<path fill="none" stroke="grey" stroke-width="2" d="M1226.63,-863.81C1229.68,-844.74 1231.62,-813.78 1218,-792 1209.78,-778.87 1197.08,-768.71 1183.6,-760.97"/>
<polygon fill="grey" stroke="grey" stroke-width="2" points="1185.15,-757.82 1174.68,-756.22 1181.87,-764 1185.15,-757.82"/>
</g>
<!-- 43&#45;&gt;11 -->
<g id="edge37" class="edge">
<title>43&#45;&gt;11</title>
<path fill="none" stroke="grey" stroke-width="2" d="M606.52,-867.91C610.36,-866.52 614.25,-865.18 618,-864 681.32,-844 704.35,-859.14 763,-828 784.12,-816.78 781.45,-802.37 803,-792 875.04,-757.34 965.58,-744.82 1031.96,-740.55"/>
<polygon fill="grey" stroke="grey" stroke-width="2" points="1032.21,-744.04 1041.98,-739.95 1031.79,-737.05 1032.21,-744.04"/>
</g>
<!-- 44&#45;&gt;11 -->
<g id="edge38" class="edge">
<title>44&#45;&gt;11</title>
<path fill="none" stroke="grey" stroke-width="2" d="M1562.57,-863.86C1564.53,-843.63 1564.23,-810.44 1545,-792 1499.13,-748.02 1324.17,-739.22 1214.44,-738.18"/>
<polygon fill="grey" stroke="grey" stroke-width="2" points="1214.39,-734.68 1204.36,-738.1 1214.34,-741.68 1214.39,-734.68"/>
</g>
<!-- 45&#45;&gt;11 -->
<g id="edge39" class="edge">
<title>45&#45;&gt;11</title>
<path fill="none" stroke="grey" stroke-width="2" d="M681.2,-870.93C728.41,-853.63 828.73,-817.66 915,-792 955.99,-779.81 1002.02,-767.9 1040.34,-758.47"/>
<polygon fill="grey" stroke="grey" stroke-width="2" points="1041.54,-761.78 1050.42,-756 1039.87,-754.98 1041.54,-761.78"/>
</g>
<!-- 46&#45;&gt;7 -->
<g id="edge26" class="edge">
<title>46&#45;&gt;7</title>
<path fill="none" stroke="grey" stroke-width="2" d="M842.81,-863.91C852.02,-840.12 868.29,-795.48 877,-756 887.24,-709.58 892.24,-654.33 894.46,-622.11"/>
<polygon fill="grey" stroke="grey" stroke-width="2" points="897.95,-622.31 895.1,-612.11 890.96,-621.86 897.95,-622.31"/>
</g>
<!-- 47 -->
<g id="node48" class="node">
<title>47</title>
<path fill="none" stroke="#8fd856" stroke-width="2" d="M856,-756C856,-756 786,-756 786,-756 780,-756 774,-750 774,-744 774,-744 774,-732 774,-732 774,-726 780,-720 786,-720 786,-720 856,-720 856,-720 862,-720 868,-726 868,-732 868,-732 868,-744 868,-744 868,-750 862,-756 856,-756"/>
<text text-anchor="middle" x="821" y="-735.5" font-family="sans" font-size="10.00">samtools_index</text>
</g>
<!-- 46&#45;&gt;47 -->
<g id="edge114" class="edge">
<title>46&#45;&gt;47</title>
<path fill="none" stroke="grey" stroke-width="2" d="M834.19,-863.87C831.63,-839.67 826.94,-795.21 823.89,-766.39"/>
<polygon fill="grey" stroke="grey" stroke-width="2" points="827.35,-765.77 822.82,-756.19 820.39,-766.5 827.35,-765.77"/>
</g>
<!-- 47&#45;&gt;7 -->
<g id="edge27" class="edge">
<title>47&#45;&gt;7</title>
<path fill="none" stroke="grey" stroke-width="2" d="M830.05,-719.87C843,-695.35 866.93,-650.03 882.13,-621.26"/>
<polygon fill="grey" stroke="grey" stroke-width="2" points="885.35,-622.67 886.92,-612.19 879.16,-619.4 885.35,-622.67"/>
</g>
<!-- 48&#45;&gt;3 -->
<g id="edge5" class="edge">
<title>48&#45;&gt;3</title>
<path fill="none" stroke="grey" stroke-width="2" d="M412.34,-361.39C396.54,-352.86 379.91,-340.59 371,-324 363.43,-309.9 360.27,-299.87 371,-288 399.98,-255.95 671.35,-242.36 812.13,-237.42"/>
<polygon fill="grey" stroke="grey" stroke-width="2" points="812.58,-240.91 822.45,-237.07 812.34,-233.91 812.58,-240.91"/>
</g>
<!-- 56 -->
<g id="node57" class="node">
<title>56</title>
<path fill="none" stroke="#d89c56" stroke-width="2" d="M510,-324C510,-324 392,-324 392,-324 386,-324 380,-318 380,-312 380,-312 380,-300 380,-300 380,-294 386,-288 392,-288 392,-288 510,-288 510,-288 516,-288 522,-294 522,-300 522,-300 522,-312 522,-312 522,-318 516,-324 510,-324"/>
<text text-anchor="middle" x="451" y="-303.5" font-family="sans" font-size="10.00">bcftools_index_final_calls</text>
</g>
<!-- 48&#45;&gt;56 -->
<g id="edge123" class="edge">
<title>48&#45;&gt;56</title>
<path fill="none" stroke="grey" stroke-width="2" d="M451,-359.7C451,-351.98 451,-342.71 451,-334.11"/>
<polygon fill="grey" stroke="grey" stroke-width="2" points="454.5,-334.1 451,-324.1 447.5,-334.1 454.5,-334.1"/>
</g>
<!-- 49&#45;&gt;3 -->
<g id="edge6" class="edge">
<title>49&#45;&gt;3</title>
<path fill="none" stroke="grey" stroke-width="2" d="M609.5,-360.93C593.95,-352.42 577.75,-340.29 569,-324 561.43,-309.9 558.63,-300.19 569,-288 599.65,-251.98 725.92,-240.37 812.27,-236.67"/>
<polygon fill="grey" stroke="grey" stroke-width="2" points="812.48,-240.16 822.33,-236.26 812.2,-233.17 812.48,-240.16"/>
</g>
<!-- 57 -->
<g id="node58" class="node">
<title>57</title>
<path fill="none" stroke="#d89c56" stroke-width="2" d="M708,-324C708,-324 590,-324 590,-324 584,-324 578,-318 578,-312 578,-312 578,-300 578,-300 578,-294 584,-288 590,-288 590,-288 708,-288 708,-288 714,-288 720,-294 720,-300 720,-300 720,-312 720,-312 720,-318 714,-324 708,-324"/>
<text text-anchor="middle" x="649" y="-303.5" font-family="sans" font-size="10.00">bcftools_index_final_calls</text>
</g>
<!-- 49&#45;&gt;57 -->
<g id="edge124" class="edge">
<title>49&#45;&gt;57</title>
<path fill="none" stroke="grey" stroke-width="2" d="M649,-359.7C649,-351.98 649,-342.71 649,-334.11"/>
<polygon fill="grey" stroke="grey" stroke-width="2" points="652.5,-334.1 649,-324.1 645.5,-334.1 652.5,-334.1"/>
</g>
<!-- 50&#45;&gt;3 -->
<g id="edge7" class="edge">
<title>50&#45;&gt;3</title>
<path fill="none" stroke="grey" stroke-width="2" d="M805.32,-359.88C790.48,-351.41 775.32,-339.59 767,-324 759.47,-309.88 758.09,-301.29 767,-288 777.91,-271.73 794.8,-260.45 812.81,-252.63"/>
<polygon fill="grey" stroke="grey" stroke-width="2" points="814.31,-255.8 822.31,-248.85 811.72,-249.3 814.31,-255.8"/>
</g>
<!-- 58 -->
<g id="node59" class="node">
<title>58</title>
<path fill="none" stroke="#d89c56" stroke-width="2" d="M906,-324C906,-324 788,-324 788,-324 782,-324 776,-318 776,-312 776,-312 776,-300 776,-300 776,-294 782,-288 788,-288 788,-288 906,-288 906,-288 912,-288 918,-294 918,-300 918,-300 918,-312 918,-312 918,-318 912,-324 906,-324"/>
<text text-anchor="middle" x="847" y="-303.5" font-family="sans" font-size="10.00">bcftools_index_final_calls</text>
</g>
<!-- 50&#45;&gt;58 -->
<g id="edge125" class="edge">
<title>50&#45;&gt;58</title>
<path fill="none" stroke="grey" stroke-width="2" d="M846.25,-359.7C846.36,-351.98 846.49,-342.71 846.61,-334.11"/>
<polygon fill="grey" stroke="grey" stroke-width="2" points="850.11,-334.15 846.76,-324.1 843.11,-334.05 850.11,-334.15"/>
</g>
<!-- 51&#45;&gt;3 -->
<g id="edge8" class="edge">
<title>51&#45;&gt;3</title>
<path fill="none" stroke="grey" stroke-width="2" d="M944.74,-359.81C941.98,-341.53 936.46,-312.02 927,-288 923.39,-278.82 918.33,-269.35 913.36,-261.01"/>
<polygon fill="grey" stroke="grey" stroke-width="2" points="916.3,-259.11 908.06,-252.45 910.35,-262.8 916.3,-259.11"/>
</g>
<!-- 59 -->
<g id="node60" class="node">
<title>59</title>
<path fill="none" stroke="#d89c56" stroke-width="2" d="M1104,-324C1104,-324 986,-324 986,-324 980,-324 974,-318 974,-312 974,-312 974,-300 974,-300 974,-294 980,-288 986,-288 986,-288 1104,-288 1104,-288 1110,-288 1116,-294 1116,-300 1116,-300 1116,-312 1116,-312 1116,-318 1110,-324 1104,-324"/>
<text text-anchor="middle" x="1045" y="-303.5" font-family="sans" font-size="10.00">bcftools_index_final_calls</text>
</g>
<!-- 51&#45;&gt;59 -->
<g id="edge126" class="edge">
<title>51&#45;&gt;59</title>
<path fill="none" stroke="grey" stroke-width="2" d="M970.97,-359.88C983.55,-350.89 999.13,-339.76 1012.75,-330.03"/>
<polygon fill="grey" stroke="grey" stroke-width="2" points="1014.83,-332.85 1020.93,-324.19 1010.76,-327.15 1014.83,-332.85"/>
</g>
<!-- 52&#45;&gt;3 -->
<g id="edge9" class="edge">
<title>52&#45;&gt;3</title>
<path fill="none" stroke="grey" stroke-width="2" d="M1145.39,-359.75C1146,-339.73 1143.72,-307.04 1125,-288 1104.69,-267.34 1036.48,-253.3 979.74,-244.88"/>
<polygon fill="grey" stroke="grey" stroke-width="2" points="980.05,-241.39 969.65,-243.43 979.05,-248.32 980.05,-241.39"/>
</g>
<!-- 60 -->
<g id="node61" class="node">
<title>60</title>
<path fill="none" stroke="#d89c56" stroke-width="2" d="M1302,-324C1302,-324 1184,-324 1184,-324 1178,-324 1172,-318 1172,-312 1172,-312 1172,-300 1172,-300 1172,-294 1178,-288 1184,-288 1184,-288 1302,-288 1302,-288 1308,-288 1314,-294 1314,-300 1314,-300 1314,-312 1314,-312 1314,-318 1308,-324 1302,-324"/>
<text text-anchor="middle" x="1243" y="-303.5" font-family="sans" font-size="10.00">bcftools_index_final_calls</text>
</g>
<!-- 52&#45;&gt;60 -->
<g id="edge127" class="edge">
<title>52&#45;&gt;60</title>
<path fill="none" stroke="grey" stroke-width="2" d="M1168.22,-359.88C1180.92,-350.89 1196.66,-339.76 1210.42,-330.03"/>
<polygon fill="grey" stroke="grey" stroke-width="2" points="1212.54,-332.82 1218.69,-324.19 1208.5,-327.11 1212.54,-332.82"/>
</g>
<!-- 53&#45;&gt;3 -->
<g id="edge10" class="edge">
<title>53&#45;&gt;3</title>
<path fill="none" stroke="grey" stroke-width="2" d="M1343.71,-359.76C1344.68,-339.44 1342.8,-306.15 1323,-288 1274.41,-243.45 1089.87,-235.14 979.92,-234.27"/>
<polygon fill="grey" stroke="grey" stroke-width="2" points="979.87,-230.77 969.85,-234.21 979.83,-237.77 979.87,-230.77"/>
</g>
<!-- 61 -->
<g id="node62" class="node">
<title>61</title>
<path fill="none" stroke="#d89c56" stroke-width="2" d="M1500,-324C1500,-324 1382,-324 1382,-324 1376,-324 1370,-318 1370,-312 1370,-312 1370,-300 1370,-300 1370,-294 1376,-288 1382,-288 1382,-288 1500,-288 1500,-288 1506,-288 1512,-294 1512,-300 1512,-300 1512,-312 1512,-312 1512,-318 1506,-324 1500,-324"/>
<text text-anchor="middle" x="1441" y="-303.5" font-family="sans" font-size="10.00">bcftools_index_final_calls</text>
</g>
<!-- 53&#45;&gt;61 -->
<g id="edge128" class="edge">
<title>53&#45;&gt;61</title>
<path fill="none" stroke="grey" stroke-width="2" d="M1366.22,-359.88C1378.92,-350.89 1394.66,-339.76 1408.42,-330.03"/>
<polygon fill="grey" stroke="grey" stroke-width="2" points="1410.54,-332.82 1416.69,-324.19 1406.5,-327.11 1410.54,-332.82"/>
</g>
<!-- 54&#45;&gt;3 -->
<g id="edge11" class="edge">
<title>54&#45;&gt;3</title>
<path fill="none" stroke="grey" stroke-width="2" d="M1541.81,-359.99C1542.94,-339.57 1541.27,-305.87 1521,-288 1481.28,-252.99 1141.21,-240.58 980.05,-236.65"/>
<polygon fill="grey" stroke="grey" stroke-width="2" points="979.78,-233.14 969.7,-236.4 979.62,-240.14 979.78,-233.14"/>
</g>
<!-- 62 -->
<g id="node63" class="node">
<title>62</title>
<path fill="none" stroke="#d89c56" stroke-width="2" d="M1698,-324C1698,-324 1580,-324 1580,-324 1574,-324 1568,-318 1568,-312 1568,-312 1568,-300 1568,-300 1568,-294 1574,-288 1580,-288 1580,-288 1698,-288 1698,-288 1704,-288 1710,-294 1710,-300 1710,-300 1710,-312 1710,-312 1710,-318 1704,-324 1698,-324"/>
<text text-anchor="middle" x="1639" y="-303.5" font-family="sans" font-size="10.00">bcftools_index_final_calls</text>
</g>
<!-- 54&#45;&gt;62 -->
<g id="edge129" class="edge">
<title>54&#45;&gt;62</title>
<path fill="none" stroke="grey" stroke-width="2" d="M1564.22,-359.88C1576.92,-350.89 1592.66,-339.76 1606.42,-330.03"/>
<polygon fill="grey" stroke="grey" stroke-width="2" points="1608.54,-332.82 1614.69,-324.19 1604.5,-327.11 1608.54,-332.82"/>
</g>
<!-- 55&#45;&gt;3 -->
<g id="edge12" class="edge">
<title>55&#45;&gt;3</title>
<path fill="none" stroke="grey" stroke-width="2" d="M324.33,-290.18C328.95,-289.39 333.53,-288.66 338,-288 505.35,-263.38 702.7,-247.76 812.15,-240.27"/>
<polygon fill="grey" stroke="grey" stroke-width="2" points="812.4,-243.76 822.14,-239.59 811.93,-236.78 812.4,-243.76"/>
</g>
<!-- 56&#45;&gt;3 -->
<g id="edge13" class="edge">
<title>56&#45;&gt;3</title>
<path fill="none" stroke="grey" stroke-width="2" d="M522.37,-290.45C526.98,-289.6 531.55,-288.77 536,-288 630.37,-271.63 739.24,-256.06 812.32,-246.08"/>
<polygon fill="grey" stroke="grey" stroke-width="2" points="812.96,-249.53 822.39,-244.71 812.01,-242.59 812.96,-249.53"/>
</g>
<!-- 57&#45;&gt;3 -->
<g id="edge14" class="edge">
<title>57&#45;&gt;3</title>
<path fill="none" stroke="grey" stroke-width="2" d="M709.11,-287.97C744.37,-277.97 789.09,-265.3 825.94,-254.85"/>
<polygon fill="grey" stroke="grey" stroke-width="2" points="826.96,-258.2 835.62,-252.11 825.05,-251.47 826.96,-258.2"/>
</g>
<!-- 58&#45;&gt;3 -->
<g id="edge15" class="edge">
<title>58&#45;&gt;3</title>
<path fill="none" stroke="grey" stroke-width="2" d="M859.11,-287.7C864.87,-279.47 871.86,-269.48 878.21,-260.42"/>
<polygon fill="grey" stroke="grey" stroke-width="2" points="881.16,-262.3 884.03,-252.1 875.42,-258.29 881.16,-262.3"/>
</g>
<!-- 59&#45;&gt;3 -->
<g id="edge16" class="edge">
<title>59&#45;&gt;3</title>
<path fill="none" stroke="grey" stroke-width="2" d="M1008.55,-287.88C988.36,-278.39 963.08,-266.51 941.59,-256.42"/>
<polygon fill="grey" stroke="grey" stroke-width="2" points="942.87,-253.15 932.33,-252.07 939.89,-259.49 942.87,-253.15"/>
</g>
<!-- 60&#45;&gt;3 -->
<g id="edge17" class="edge">
<title>60&#45;&gt;3</title>
<path fill="none" stroke="grey" stroke-width="2" d="M1171.94,-290.67C1116.18,-279.42 1038.42,-263.73 979.66,-251.88"/>
<polygon fill="grey" stroke="grey" stroke-width="2" points="980.15,-248.41 969.66,-249.86 978.77,-255.27 980.15,-248.41"/>
</g>
<!-- 61&#45;&gt;3 -->
<g id="edge18" class="edge">
<title>61&#45;&gt;3</title>
<path fill="none" stroke="grey" stroke-width="2" d="M1369.66,-290.29C1365.04,-289.47 1360.46,-288.7 1356,-288 1225.11,-267.41 1072.08,-251.36 979.68,-242.54"/>
<polygon fill="grey" stroke="grey" stroke-width="2" points="979.84,-239.04 969.55,-241.58 979.17,-246.01 979.84,-239.04"/>
</g>
<!-- 62&#45;&gt;3 -->
<g id="edge19" class="edge">
<title>62&#45;&gt;3</title>
<path fill="none" stroke="grey" stroke-width="2" d="M1567.68,-290.11C1563.06,-289.34 1558.47,-288.63 1554,-288 1348.93,-259.33 1105.58,-244.73 980.12,-238.62"/>
<polygon fill="grey" stroke="grey" stroke-width="2" points="979.98,-235.11 969.83,-238.13 979.65,-242.1 979.98,-235.11"/>
</g>
</g>
</svg>
